<?xml version="1.0" encoding="UTF-8" standalone="no"?>
<svg
   version="1.1"
   id="Layer_1"
   x="0px"
   y="0px"
   width="336"
   viewBox="0 0 336 172"
   enable-background="new 0 0 336 272"
   xml:space="preserve"
   sodipodi:docname="SNPick.svg"
   height="172"
   inkscape:version="1.2 (dc2aedaf03, 2022-05-15)"
   xmlns:inkscape="http://www.inkscape.org/namespaces/inkscape"
   xmlns:sodipodi="http://sodipodi.sourceforge.net/DTD/sodipodi-0.dtd"
   xmlns="http://www.w3.org/2000/svg"
   xmlns:svg="http://www.w3.org/2000/svg"><defs
   id="defs7" /><sodipodi:namedview
   id="namedview5"
   pagecolor="#ffffff"
   bordercolor="#000000"
   borderopacity="0.25"
   inkscape:showpageshadow="2"
   inkscape:pageopacity="0.0"
   inkscape:pagecheckerboard="0"
   inkscape:deskcolor="#d1d1d1"
   showgrid="false"
   inkscape:zoom="1.5238971"
   inkscape:cx="322.52835"
   inkscape:cy="-7.8745476"
   inkscape:window-width="1920"
   inkscape:window-height="1009"
   inkscape:window-x="-8"
   inkscape:window-y="-8"
   inkscape:window-maximized="1"
   inkscape:current-layer="Layer_1" />
<path
   fill="#000000"
   opacity="1"
   stroke="none"
   d="m 216.28243,116.03959 c -3.66712,2.42122 -5.82556,1.66879 -7.55237,-2.43457 -0.46948,-1.11557 -0.0205,-1.89273 0.61873,-2.63549 1.57023,-1.82444 3.12009,-3.6728 4.75793,-5.42523 1.62776,-1.74165 2.70605,-3.54935 2.84094,-6.229131 0.23732,-4.71482 0.92841,-9.40542 1.48898,-14.09793 0.19019,-1.59195 -0.31697,-2.49948 -1.7115,-3.12523 -3.35887,-1.50723 -6.67412,-3.12907 -9.98533,-4.75563 -0.88341,-0.43396 -1.60176,-0.55417 -2.54436,-0.014 -4.38815,2.51484 -8.84313,2.61846 -13.23344,-0.003 -0.91666,-0.54733 -1.63567,-0.49529 -2.54164,-0.0454 -3.30449,1.64072 -6.63082,3.23267 -9.97524,4.77703 -1.2951,0.59805 -2.02948,1.339 -1.83139,3.04337 0.64979,5.5907 1.18643,11.19662 1.76506,16.796891 0.0839,0.81173 0.59349,1.34101 1.07278,1.8894 1.96701,2.25062 3.90201,4.53531 5.91728,6.73484 1.31045,1.43029 1.55293,2.79115 0.16332,4.28446 -0.049,0.0527 -0.0834,0.1209 -0.12669,0.18017 -2.68811,3.6769 -2.68356,3.66899 -6.3706,1.19842 -2.67454,-1.79211 -5.34942,-3.58459 -8.05292,-5.32515 -0.96457,-0.62101 -1.54051,-1.40244 -1.78802,-2.61443 -2.02383,-9.909951 -4.08082,-19.812121 -6.15856,-29.709171 -0.3372,-1.6062 0.39639,-2.52387 1.47081,-3.41163 6.33158,-5.23163 12.59432,-10.561177 18.97862,-15.716757 2.70778,-2.18665 4.17632,-5.69395 7.22618,-7.47537 0.52884,-0.3089 0.42133,-1.0779 0.42197,-1.6747 0.007,-6.10378 -0.043,-12.20826 0.0333,-18.31094 0.0225,-1.80127 -0.91471,-1.91972 -2.13299,-1.92018 -5.53338,-0.003 -11.06677,-0.0104 -16.60015,-0.023 -2.88811,-0.006 -3.00794,-0.036 -3.18075,-3.02807 -0.0995,-1.72149 -1.09989,-1.66888 -2.16772,-1.67257 -5.04309,-0.0175 -10.08621,-0.0188 -15.12932,-0.0255 -0.21012,-2.9e-4 -0.4206,0.0117 -0.63032,0.003 -1.37879,-0.0612 -3.20519,0.22546 -3.22868,-1.88124 -0.0244,-2.18434 1.83018,-1.83506 3.18872,-1.84114 5.25319,-0.0236 10.50656,-2.6e-4 15.75974,-0.0262 0.76505,-0.004 1.72263,0.28917 2.07826,-0.8996 -0.61477,-1.05346 -1.54788,-0.69396 -2.32158,-0.70022 -4.90279,-0.0397 -9.80598,-0.0201 -14.70902,-0.0231 -0.63016,-3.8e-4 -1.26275,0.0158 -1.88993,-0.0358 -1.1458,-0.0944 -2.17859,-0.56001 -2.162,-1.953 0.017,-1.42758 1.07809,-1.79447 2.23274,-1.79614 5.25325,-0.008 10.50817,-0.0894 15.75898,0.0315 2.13655,0.0492 3.58711,-0.2137 3.23993,-3.07235 -0.12955,-1.06678 0.62511,-1.64853 1.54368,-1.79179 0.75701,-0.11806 1.53516,-0.10576 2.30394,-0.10589 16.25013,-0.004 32.50026,-10e-4 48.75038,-6.1e-4 3.3861,2.7e-4 3.43537,-0.008 3.96294,3.64966 0.2152,1.4918 1.1617,1.26801 2.03515,1.27122 4.76291,0.0175 9.5259,0.009 14.28888,0.009 0.4903,5e-5 0.98199,-0.0262 1.47065,0.004 1.40505,0.0875 3.41383,-0.40911 3.32574,1.92729 -0.0822,2.18228 -2.04959,1.83905 -3.47599,1.84758 -5.11302,0.0306 -10.2264,-0.006 -15.33935,0.0287 -0.76005,0.005 -1.72569,-0.38438 -2.19666,0.78777 0.38783,1.24939 1.38199,0.81304 2.12286,0.81846 5.25302,0.0384 10.5064,0.0151 15.75966,0.0234 0.62754,0.001 1.27386,-0.0137 1.87783,0.136 0.82578,0.20473 1.35668,0.82321 1.32179,1.78212 -0.0306,0.84057 -0.4933,1.43531 -1.26083,1.58927 -0.74988,0.15042 -1.52451,0.21573 -2.2885,0.21776 -5.04308,0.0133 -10.0868,0.0441 -15.12904,-0.0307 -1.66207,-0.0246 -2.73958,0.27551 -2.5278,2.44294 0.17631,1.80444 -0.84567,2.32106 -2.35487,2.31381 -5.6734,-0.0273 -11.34774,0.0501 -17.02012,-0.035 -1.83099,-0.0274 -2.61269,0.45291 -2.55794,2.6448 0.14296,5.72299 0.081,11.45292 0.0373,17.17953 -0.01,1.32274 0.46847,2.09137 1.36669,3.02119 3.76934,3.90197 7.48985,7.82408 11.75351,11.14288 4.53694,3.53157 8.86411,7.373517 13.34589,10.989567 1.40565,1.13409 1.92459,2.28372 1.50776,4.21978 -2.04936,9.51869 -4.00698,19.06079 -5.91462,28.613661 -0.31081,1.55646 -1.03055,2.53104 -2.24426,3.30897 -2.46521,1.58012 -4.88651,3.2395 -7.45455,4.95686 m 4.0233,-89.549128 c 1.68196,0.22512 2.44199,-0.45556 2.32787,-2.38888 -0.12399,-2.09942 -0.14738,-4.22349 0.003,-6.31888 0.15333,-2.14595 -0.50706,-2.86429 -2.56673,-2.84256 -10.07515,0.10628 -20.15174,0.0558 -30.22784,0.0584 -5.108,10e-4 -10.21639,0.0348 -15.32379,-0.026 -1.5036,-0.0179 -2.1732,0.4881 -2.092,2.20391 0.10303,2.17742 0.14166,4.37446 -0.0114,6.54524 -0.15181,2.15968 0.52901,2.82841 2.57635,2.8165 14.97377,-0.0873 29.94815,-0.0473 45.31478,-0.0476 m -19.75298,48.509497 c 0.51899,-0.21907 1.05838,-0.39469 1.55372,-0.66406 4.07667,-2.21681 6.13684,-6.819717 5.34676,-11.903847 -0.64844,-4.17263 -4.32428,-7.97819 -8.22512,-8.5154 -4.86937,-0.6706 -8.96788,1.56823 -10.83776,6.1257 -1.61852,3.94483 -1.30972,7.79432 1.17262,11.258417 2.73287,3.81372 6.42071,4.77363 10.98978,3.69919 M 182.80795,64.529402 c -4.9841,4.143827 -9.95292,8.309187 -14.96498,12.413457 -1.01559,0.83164 -1.34707,1.60044 -1.03808,3.04217 1.81932,8.48891 3.52599,17.00602 5.23175,25.522631 0.28402,1.41809 0.88399,2.43444 2.08368,3.16994 2.24849,1.37849 4.42706,2.88867 6.64131,4.33236 0.45125,0.29421 0.89201,0.84702 1.51835,0.18469 0.28412,-1.11232 -0.6435,-1.58142 -1.19488,-2.11544 -3.96011,-3.83545 -6.75918,-8.10457 -6.72615,-14.281121 0.0235,-4.40054 -0.83393,-8.8099 -1.34582,-13.20891 -0.2322,-1.99539 0.35367,-3.23628 2.2156,-3.97582 2.29195,-0.91032 4.48791,-2.10753 6.7038,-3.23002 1.61334,-0.81724 3.39495,-1.30649 4.86967,-2.68853 -1.59637,-2.79477 -2.78989,-5.653387 -2.88708,-8.911477 -0.0199,-0.66689 -0.43377,-0.65551 -1.10717,-0.25393 m 38.40664,26.204397 c -0.15039,1.64609 -0.32003,3.29046 -0.44762,4.93859 -0.3965,5.121681 -0.8497,10.191051 -5.18601,13.602171 -0.88974,0.69991 -1.56648,1.71728 -2.3244,2.60513 -0.31635,0.37058 -0.78561,0.71055 -0.42275,1.39031 0.7583,0.61308 1.28568,-0.14524 1.82915,-0.4903 1.98969,-1.26331 3.90549,-2.66629 5.9263,-3.86619 1.40132,-0.83207 2.12879,-1.97044 2.46205,-3.64428 1.63869,-8.230711 3.27965,-16.462891 5.09714,-24.648981 0.43866,-1.97575 -0.0589,-3.02428 -1.46089,-4.1466 -4.21337,-3.37274 -8.33749,-6.87443 -12.50164,-10.318547 -0.86627,-0.71647 -1.75486,-1.4017 -2.93986,-2.34563 -0.19727,3.82689 -1.11408,7.006997 -3.00466,9.811437 0.66576,0.86388 1.49871,1.1005 2.24221,1.46627 3.18359,1.5661 6.3476,3.18639 9.58295,4.61913 1.55755,0.68975 2.19107,1.7124 1.98189,3.45751 -0.28591,2.38517 -0.54399,4.77421 -0.83386,7.56998 M 197.00334,50.032072 c 1.02925,0 2.0585,0 3.35424,0 0,-6.24152 0.004,-12.4575 -0.004,-18.67347 -0.001,-0.9366 -0.52687,-1.33524 -1.35019,-1.34231 -0.76843,-0.006 -1.53794,0.0277 -2.30525,-0.004 -1.47682,-0.0615 -2.10883,0.54975 -2.05257,2.26087 0.11359,3.45424 0.0403,6.91563 0.0425,10.37408 10e-4,2.45408 3e-4,4.90815 3e-4,7.39446 0.87347,0 1.42224,0 2.31539,-0.009 z"
   id="path2"
   style="stroke-width:0.436007;fill:#666666" />
<text
   xml:space="preserve"
   style="font-weight:bold;font-size:53.3333px;line-height:1.3;font-family:Arial;-inkscape-font-specification:'Arial Bold';fill:#0398ba;fill-rule:evenodd;stroke-width:3.8778"
   x="15.092885"
   y="153.55367"
   id="text290"><tspan
     sodipodi:role="line"
     id="tspan288"
     x="15.092885"
     y="153.55367"
     style="font-style:normal;font-variant:normal;font-weight:normal;font-stretch:normal;font-size:53.3333px;font-family:'Sixtyfour Convergence';-inkscape-font-specification:'Sixtyfour Convergence';fill:#333333">SNP</tspan></text><text
   xml:space="preserve"
   style="font-style:normal;font-variant:normal;font-weight:normal;font-stretch:normal;font-size:53.3333px;line-height:1.3;font-family:'Sixtyfour Convergence';-inkscape-font-specification:'Sixtyfour Convergence';fill:#0398ba;fill-rule:evenodd;stroke-width:3.8778"
   x="211.95657"
   y="149.61641"
   id="text398"><tspan
     sodipodi:role="line"
     id="tspan396"
     x="211.95657"
     y="149.61641"
     style="fill:#00ff00">ck</tspan></text><text
   xml:space="preserve"
   style="font-style:normal;font-variant:normal;font-weight:normal;font-stretch:normal;font-size:53.3333px;line-height:1.3;font-family:'Sixtyfour Convergence';-inkscape-font-specification:'Sixtyfour Convergence';fill:#0398ba;fill-rule:evenodd;stroke-width:3.8778"
   x="200.90446"
   y="61.537975"
   id="text402"
   transform="rotate(21.600741)"><tspan
     sodipodi:role="line"
     id="tspan400"
     x="200.90446"
     y="61.537975"
     style="fill:#00ff00">i</tspan></text></svg>
