<?xml version="1.0" encoding="utf-8" standalone="no"?>
<!DOCTYPE svg PUBLIC "-//W3C//DTD SVG 1.1//EN"
  "http://www.w3.org/Graphics/SVG/1.1/DTD/svg11.dtd">
<svg xmlns:xlink="http://www.w3.org/1999/xlink" width="1071.48875pt" height="349.372984pt" viewBox="0 0 1071.48875 349.372984" xmlns="http://www.w3.org/2000/svg" version="1.1">
 <metadata>
  <rdf:RDF xmlns:dc="http://purl.org/dc/elements/1.1/" xmlns:cc="http://creativecommons.org/ns#" xmlns:rdf="http://www.w3.org/1999/02/22-rdf-syntax-ns#">
   <cc:Work>
    <dc:type rdf:resource="http://purl.org/dc/dcmitype/StillImage"/>
    <dc:date>2026-03-31T10:13:33.880130</dc:date>
    <dc:format>image/svg+xml</dc:format>
    <dc:creator>
     <cc:Agent>
      <dc:title>Matplotlib v3.9.4, https://matplotlib.org/</dc:title>
     </cc:Agent>
    </dc:creator>
   </cc:Work>
  </rdf:RDF>
 </metadata>
 <defs>
  <style type="text/css">*{stroke-linejoin: round; stroke-linecap: butt}</style>
 </defs>
 <g id="figure_1">
  <g id="patch_1">
   <path d="M 0 349.372984 
L 1071.48875 349.372984 
L 1071.48875 0 
L 0 0 
z
" style="fill: #ffffff"/>
  </g>
  <g id="axes_1">
   <g id="patch_2">
    <path d="M 42.53875 309.881109 
L 347.28875 309.881109 
L 347.28875 41.741253 
L 42.53875 41.741253 
z
" style="fill: #ffffff"/>
   </g>
   <g id="matplotlib.axis_1">
    <g id="xtick_1">
     <g id="line2d_1">
      <path d="M 48.079659 309.881109 
L 48.079659 41.741253 
" clip-path="url(#pd4b72178f0)" style="fill: none; stroke: #b0b0b0; stroke-opacity: 0.3; stroke-width: 0.8; stroke-linecap: square"/>
     </g>
     <g id="line2d_2">
      <defs>
       <path id="md2b81e8ccd" d="M 0 0 
L 0 3.5 
" style="stroke: #000000; stroke-width: 0.8"/>
      </defs>
      <g>
       <use xlink:href="#md2b81e8ccd" x="48.079659" y="309.881109" style="stroke: #000000; stroke-width: 0.8"/>
      </g>
     </g>
     <g id="text_1">
      <!-- 0 -->
      <g transform="translate(44.898409 324.479546) scale(0.1 -0.1)">
       <defs>
        <path id="DejaVuSans-30" d="M 2034 4250 
Q 1547 4250 1301 3770 
Q 1056 3291 1056 2328 
Q 1056 1369 1301 889 
Q 1547 409 2034 409 
Q 2525 409 2770 889 
Q 3016 1369 3016 2328 
Q 3016 3291 2770 3770 
Q 2525 4250 2034 4250 
z
M 2034 4750 
Q 2819 4750 3233 4129 
Q 3647 3509 3647 2328 
Q 3647 1150 3233 529 
Q 2819 -91 2034 -91 
Q 1250 -91 836 529 
Q 422 1150 422 2328 
Q 422 3509 836 4129 
Q 1250 4750 2034 4750 
z
" transform="scale(0.015625)"/>
       </defs>
       <use xlink:href="#DejaVuSans-30"/>
      </g>
     </g>
    </g>
    <g id="xtick_2">
     <g id="line2d_3">
      <path d="M 103.48875 309.881109 
L 103.48875 41.741253 
" clip-path="url(#pd4b72178f0)" style="fill: none; stroke: #b0b0b0; stroke-opacity: 0.3; stroke-width: 0.8; stroke-linecap: square"/>
     </g>
     <g id="line2d_4">
      <g>
       <use xlink:href="#md2b81e8ccd" x="103.48875" y="309.881109" style="stroke: #000000; stroke-width: 0.8"/>
      </g>
     </g>
     <g id="text_2">
      <!-- 200 -->
      <g transform="translate(93.945 324.479546) scale(0.1 -0.1)">
       <defs>
        <path id="DejaVuSans-32" d="M 1228 531 
L 3431 531 
L 3431 0 
L 469 0 
L 469 531 
Q 828 903 1448 1529 
Q 2069 2156 2228 2338 
Q 2531 2678 2651 2914 
Q 2772 3150 2772 3378 
Q 2772 3750 2511 3984 
Q 2250 4219 1831 4219 
Q 1534 4219 1204 4116 
Q 875 4013 500 3803 
L 500 4441 
Q 881 4594 1212 4672 
Q 1544 4750 1819 4750 
Q 2544 4750 2975 4387 
Q 3406 4025 3406 3419 
Q 3406 3131 3298 2873 
Q 3191 2616 2906 2266 
Q 2828 2175 2409 1742 
Q 1991 1309 1228 531 
z
" transform="scale(0.015625)"/>
       </defs>
       <use xlink:href="#DejaVuSans-32"/>
       <use xlink:href="#DejaVuSans-30" x="63.623047"/>
       <use xlink:href="#DejaVuSans-30" x="127.246094"/>
      </g>
     </g>
    </g>
    <g id="xtick_3">
     <g id="line2d_5">
      <path d="M 158.897841 309.881109 
L 158.897841 41.741253 
" clip-path="url(#pd4b72178f0)" style="fill: none; stroke: #b0b0b0; stroke-opacity: 0.3; stroke-width: 0.8; stroke-linecap: square"/>
     </g>
     <g id="line2d_6">
      <g>
       <use xlink:href="#md2b81e8ccd" x="158.897841" y="309.881109" style="stroke: #000000; stroke-width: 0.8"/>
      </g>
     </g>
     <g id="text_3">
      <!-- 400 -->
      <g transform="translate(149.354091 324.479546) scale(0.1 -0.1)">
       <defs>
        <path id="DejaVuSans-34" d="M 2419 4116 
L 825 1625 
L 2419 1625 
L 2419 4116 
z
M 2253 4666 
L 3047 4666 
L 3047 1625 
L 3713 1625 
L 3713 1100 
L 3047 1100 
L 3047 0 
L 2419 0 
L 2419 1100 
L 313 1100 
L 313 1709 
L 2253 4666 
z
" transform="scale(0.015625)"/>
       </defs>
       <use xlink:href="#DejaVuSans-34"/>
       <use xlink:href="#DejaVuSans-30" x="63.623047"/>
       <use xlink:href="#DejaVuSans-30" x="127.246094"/>
      </g>
     </g>
    </g>
    <g id="xtick_4">
     <g id="line2d_7">
      <path d="M 214.306932 309.881109 
L 214.306932 41.741253 
" clip-path="url(#pd4b72178f0)" style="fill: none; stroke: #b0b0b0; stroke-opacity: 0.3; stroke-width: 0.8; stroke-linecap: square"/>
     </g>
     <g id="line2d_8">
      <g>
       <use xlink:href="#md2b81e8ccd" x="214.306932" y="309.881109" style="stroke: #000000; stroke-width: 0.8"/>
      </g>
     </g>
     <g id="text_4">
      <!-- 600 -->
      <g transform="translate(204.763182 324.479546) scale(0.1 -0.1)">
       <defs>
        <path id="DejaVuSans-36" d="M 2113 2584 
Q 1688 2584 1439 2293 
Q 1191 2003 1191 1497 
Q 1191 994 1439 701 
Q 1688 409 2113 409 
Q 2538 409 2786 701 
Q 3034 994 3034 1497 
Q 3034 2003 2786 2293 
Q 2538 2584 2113 2584 
z
M 3366 4563 
L 3366 3988 
Q 3128 4100 2886 4159 
Q 2644 4219 2406 4219 
Q 1781 4219 1451 3797 
Q 1122 3375 1075 2522 
Q 1259 2794 1537 2939 
Q 1816 3084 2150 3084 
Q 2853 3084 3261 2657 
Q 3669 2231 3669 1497 
Q 3669 778 3244 343 
Q 2819 -91 2113 -91 
Q 1303 -91 875 529 
Q 447 1150 447 2328 
Q 447 3434 972 4092 
Q 1497 4750 2381 4750 
Q 2619 4750 2861 4703 
Q 3103 4656 3366 4563 
z
" transform="scale(0.015625)"/>
       </defs>
       <use xlink:href="#DejaVuSans-36"/>
       <use xlink:href="#DejaVuSans-30" x="63.623047"/>
       <use xlink:href="#DejaVuSans-30" x="127.246094"/>
      </g>
     </g>
    </g>
    <g id="xtick_5">
     <g id="line2d_9">
      <path d="M 269.716023 309.881109 
L 269.716023 41.741253 
" clip-path="url(#pd4b72178f0)" style="fill: none; stroke: #b0b0b0; stroke-opacity: 0.3; stroke-width: 0.8; stroke-linecap: square"/>
     </g>
     <g id="line2d_10">
      <g>
       <use xlink:href="#md2b81e8ccd" x="269.716023" y="309.881109" style="stroke: #000000; stroke-width: 0.8"/>
      </g>
     </g>
     <g id="text_5">
      <!-- 800 -->
      <g transform="translate(260.172273 324.479546) scale(0.1 -0.1)">
       <defs>
        <path id="DejaVuSans-38" d="M 2034 2216 
Q 1584 2216 1326 1975 
Q 1069 1734 1069 1313 
Q 1069 891 1326 650 
Q 1584 409 2034 409 
Q 2484 409 2743 651 
Q 3003 894 3003 1313 
Q 3003 1734 2745 1975 
Q 2488 2216 2034 2216 
z
M 1403 2484 
Q 997 2584 770 2862 
Q 544 3141 544 3541 
Q 544 4100 942 4425 
Q 1341 4750 2034 4750 
Q 2731 4750 3128 4425 
Q 3525 4100 3525 3541 
Q 3525 3141 3298 2862 
Q 3072 2584 2669 2484 
Q 3125 2378 3379 2068 
Q 3634 1759 3634 1313 
Q 3634 634 3220 271 
Q 2806 -91 2034 -91 
Q 1263 -91 848 271 
Q 434 634 434 1313 
Q 434 1759 690 2068 
Q 947 2378 1403 2484 
z
M 1172 3481 
Q 1172 3119 1398 2916 
Q 1625 2713 2034 2713 
Q 2441 2713 2670 2916 
Q 2900 3119 2900 3481 
Q 2900 3844 2670 4047 
Q 2441 4250 2034 4250 
Q 1625 4250 1398 4047 
Q 1172 3844 1172 3481 
z
" transform="scale(0.015625)"/>
       </defs>
       <use xlink:href="#DejaVuSans-38"/>
       <use xlink:href="#DejaVuSans-30" x="63.623047"/>
       <use xlink:href="#DejaVuSans-30" x="127.246094"/>
      </g>
     </g>
    </g>
    <g id="xtick_6">
     <g id="line2d_11">
      <path d="M 325.125114 309.881109 
L 325.125114 41.741253 
" clip-path="url(#pd4b72178f0)" style="fill: none; stroke: #b0b0b0; stroke-opacity: 0.3; stroke-width: 0.8; stroke-linecap: square"/>
     </g>
     <g id="line2d_12">
      <g>
       <use xlink:href="#md2b81e8ccd" x="325.125114" y="309.881109" style="stroke: #000000; stroke-width: 0.8"/>
      </g>
     </g>
     <g id="text_6">
      <!-- 1000 -->
      <g transform="translate(312.400114 324.479546) scale(0.1 -0.1)">
       <defs>
        <path id="DejaVuSans-31" d="M 794 531 
L 1825 531 
L 1825 4091 
L 703 3866 
L 703 4441 
L 1819 4666 
L 2450 4666 
L 2450 531 
L 3481 531 
L 3481 0 
L 794 0 
L 794 531 
z
" transform="scale(0.015625)"/>
       </defs>
       <use xlink:href="#DejaVuSans-31"/>
       <use xlink:href="#DejaVuSans-30" x="63.623047"/>
       <use xlink:href="#DejaVuSans-30" x="127.246094"/>
       <use xlink:href="#DejaVuSans-30" x="190.869141"/>
      </g>
     </g>
    </g>
    <g id="text_7">
     <!-- Number of sequences -->
     <g transform="translate(129.173438 339.677359) scale(0.12 -0.12)">
      <defs>
       <path id="DejaVuSans-4e" d="M 628 4666 
L 1478 4666 
L 3547 763 
L 3547 4666 
L 4159 4666 
L 4159 0 
L 3309 0 
L 1241 3903 
L 1241 0 
L 628 0 
L 628 4666 
z
" transform="scale(0.015625)"/>
       <path id="DejaVuSans-75" d="M 544 1381 
L 544 3500 
L 1119 3500 
L 1119 1403 
Q 1119 906 1312 657 
Q 1506 409 1894 409 
Q 2359 409 2629 706 
Q 2900 1003 2900 1516 
L 2900 3500 
L 3475 3500 
L 3475 0 
L 2900 0 
L 2900 538 
Q 2691 219 2414 64 
Q 2138 -91 1772 -91 
Q 1169 -91 856 284 
Q 544 659 544 1381 
z
M 1991 3584 
L 1991 3584 
z
" transform="scale(0.015625)"/>
       <path id="DejaVuSans-6d" d="M 3328 2828 
Q 3544 3216 3844 3400 
Q 4144 3584 4550 3584 
Q 5097 3584 5394 3201 
Q 5691 2819 5691 2113 
L 5691 0 
L 5113 0 
L 5113 2094 
Q 5113 2597 4934 2840 
Q 4756 3084 4391 3084 
Q 3944 3084 3684 2787 
Q 3425 2491 3425 1978 
L 3425 0 
L 2847 0 
L 2847 2094 
Q 2847 2600 2669 2842 
Q 2491 3084 2119 3084 
Q 1678 3084 1418 2786 
Q 1159 2488 1159 1978 
L 1159 0 
L 581 0 
L 581 3500 
L 1159 3500 
L 1159 2956 
Q 1356 3278 1631 3431 
Q 1906 3584 2284 3584 
Q 2666 3584 2933 3390 
Q 3200 3197 3328 2828 
z
" transform="scale(0.015625)"/>
       <path id="DejaVuSans-62" d="M 3116 1747 
Q 3116 2381 2855 2742 
Q 2594 3103 2138 3103 
Q 1681 3103 1420 2742 
Q 1159 2381 1159 1747 
Q 1159 1113 1420 752 
Q 1681 391 2138 391 
Q 2594 391 2855 752 
Q 3116 1113 3116 1747 
z
M 1159 2969 
Q 1341 3281 1617 3432 
Q 1894 3584 2278 3584 
Q 2916 3584 3314 3078 
Q 3713 2572 3713 1747 
Q 3713 922 3314 415 
Q 2916 -91 2278 -91 
Q 1894 -91 1617 61 
Q 1341 213 1159 525 
L 1159 0 
L 581 0 
L 581 4863 
L 1159 4863 
L 1159 2969 
z
" transform="scale(0.015625)"/>
       <path id="DejaVuSans-65" d="M 3597 1894 
L 3597 1613 
L 953 1613 
Q 991 1019 1311 708 
Q 1631 397 2203 397 
Q 2534 397 2845 478 
Q 3156 559 3463 722 
L 3463 178 
Q 3153 47 2828 -22 
Q 2503 -91 2169 -91 
Q 1331 -91 842 396 
Q 353 884 353 1716 
Q 353 2575 817 3079 
Q 1281 3584 2069 3584 
Q 2775 3584 3186 3129 
Q 3597 2675 3597 1894 
z
M 3022 2063 
Q 3016 2534 2758 2815 
Q 2500 3097 2075 3097 
Q 1594 3097 1305 2825 
Q 1016 2553 972 2059 
L 3022 2063 
z
" transform="scale(0.015625)"/>
       <path id="DejaVuSans-72" d="M 2631 2963 
Q 2534 3019 2420 3045 
Q 2306 3072 2169 3072 
Q 1681 3072 1420 2755 
Q 1159 2438 1159 1844 
L 1159 0 
L 581 0 
L 581 3500 
L 1159 3500 
L 1159 2956 
Q 1341 3275 1631 3429 
Q 1922 3584 2338 3584 
Q 2397 3584 2469 3576 
Q 2541 3569 2628 3553 
L 2631 2963 
z
" transform="scale(0.015625)"/>
       <path id="DejaVuSans-20" transform="scale(0.015625)"/>
       <path id="DejaVuSans-6f" d="M 1959 3097 
Q 1497 3097 1228 2736 
Q 959 2375 959 1747 
Q 959 1119 1226 758 
Q 1494 397 1959 397 
Q 2419 397 2687 759 
Q 2956 1122 2956 1747 
Q 2956 2369 2687 2733 
Q 2419 3097 1959 3097 
z
M 1959 3584 
Q 2709 3584 3137 3096 
Q 3566 2609 3566 1747 
Q 3566 888 3137 398 
Q 2709 -91 1959 -91 
Q 1206 -91 779 398 
Q 353 888 353 1747 
Q 353 2609 779 3096 
Q 1206 3584 1959 3584 
z
" transform="scale(0.015625)"/>
       <path id="DejaVuSans-66" d="M 2375 4863 
L 2375 4384 
L 1825 4384 
Q 1516 4384 1395 4259 
Q 1275 4134 1275 3809 
L 1275 3500 
L 2222 3500 
L 2222 3053 
L 1275 3053 
L 1275 0 
L 697 0 
L 697 3053 
L 147 3053 
L 147 3500 
L 697 3500 
L 697 3744 
Q 697 4328 969 4595 
Q 1241 4863 1831 4863 
L 2375 4863 
z
" transform="scale(0.015625)"/>
       <path id="DejaVuSans-73" d="M 2834 3397 
L 2834 2853 
Q 2591 2978 2328 3040 
Q 2066 3103 1784 3103 
Q 1356 3103 1142 2972 
Q 928 2841 928 2578 
Q 928 2378 1081 2264 
Q 1234 2150 1697 2047 
L 1894 2003 
Q 2506 1872 2764 1633 
Q 3022 1394 3022 966 
Q 3022 478 2636 193 
Q 2250 -91 1575 -91 
Q 1294 -91 989 -36 
Q 684 19 347 128 
L 347 722 
Q 666 556 975 473 
Q 1284 391 1588 391 
Q 1994 391 2212 530 
Q 2431 669 2431 922 
Q 2431 1156 2273 1281 
Q 2116 1406 1581 1522 
L 1381 1569 
Q 847 1681 609 1914 
Q 372 2147 372 2553 
Q 372 3047 722 3315 
Q 1072 3584 1716 3584 
Q 2034 3584 2315 3537 
Q 2597 3491 2834 3397 
z
" transform="scale(0.015625)"/>
       <path id="DejaVuSans-71" d="M 947 1747 
Q 947 1113 1208 752 
Q 1469 391 1925 391 
Q 2381 391 2643 752 
Q 2906 1113 2906 1747 
Q 2906 2381 2643 2742 
Q 2381 3103 1925 3103 
Q 1469 3103 1208 2742 
Q 947 2381 947 1747 
z
M 2906 525 
Q 2725 213 2448 61 
Q 2172 -91 1784 -91 
Q 1150 -91 751 415 
Q 353 922 353 1747 
Q 353 2572 751 3078 
Q 1150 3584 1784 3584 
Q 2172 3584 2448 3432 
Q 2725 3281 2906 2969 
L 2906 3500 
L 3481 3500 
L 3481 -1331 
L 2906 -1331 
L 2906 525 
z
" transform="scale(0.015625)"/>
       <path id="DejaVuSans-6e" d="M 3513 2113 
L 3513 0 
L 2938 0 
L 2938 2094 
Q 2938 2591 2744 2837 
Q 2550 3084 2163 3084 
Q 1697 3084 1428 2787 
Q 1159 2491 1159 1978 
L 1159 0 
L 581 0 
L 581 3500 
L 1159 3500 
L 1159 2956 
Q 1366 3272 1645 3428 
Q 1925 3584 2291 3584 
Q 2894 3584 3203 3211 
Q 3513 2838 3513 2113 
z
" transform="scale(0.015625)"/>
       <path id="DejaVuSans-63" d="M 3122 3366 
L 3122 2828 
Q 2878 2963 2633 3030 
Q 2388 3097 2138 3097 
Q 1578 3097 1268 2742 
Q 959 2388 959 1747 
Q 959 1106 1268 751 
Q 1578 397 2138 397 
Q 2388 397 2633 464 
Q 2878 531 3122 666 
L 3122 134 
Q 2881 22 2623 -34 
Q 2366 -91 2075 -91 
Q 1284 -91 818 406 
Q 353 903 353 1747 
Q 353 2603 823 3093 
Q 1294 3584 2113 3584 
Q 2378 3584 2631 3529 
Q 2884 3475 3122 3366 
z
" transform="scale(0.015625)"/>
      </defs>
      <use xlink:href="#DejaVuSans-4e"/>
      <use xlink:href="#DejaVuSans-75" x="74.804688"/>
      <use xlink:href="#DejaVuSans-6d" x="138.183594"/>
      <use xlink:href="#DejaVuSans-62" x="235.595703"/>
      <use xlink:href="#DejaVuSans-65" x="299.072266"/>
      <use xlink:href="#DejaVuSans-72" x="360.595703"/>
      <use xlink:href="#DejaVuSans-20" x="401.708984"/>
      <use xlink:href="#DejaVuSans-6f" x="433.496094"/>
      <use xlink:href="#DejaVuSans-66" x="494.677734"/>
      <use xlink:href="#DejaVuSans-20" x="529.882812"/>
      <use xlink:href="#DejaVuSans-73" x="561.669922"/>
      <use xlink:href="#DejaVuSans-65" x="613.769531"/>
      <use xlink:href="#DejaVuSans-71" x="675.292969"/>
      <use xlink:href="#DejaVuSans-75" x="738.769531"/>
      <use xlink:href="#DejaVuSans-65" x="802.148438"/>
      <use xlink:href="#DejaVuSans-6e" x="863.671875"/>
      <use xlink:href="#DejaVuSans-63" x="927.050781"/>
      <use xlink:href="#DejaVuSans-65" x="982.03125"/>
      <use xlink:href="#DejaVuSans-73" x="1043.554688"/>
     </g>
    </g>
   </g>
   <g id="matplotlib.axis_2">
    <g id="ytick_1">
     <g id="line2d_13">
      <path d="M 42.53875 298.370054 
L 347.28875 298.370054 
" clip-path="url(#pd4b72178f0)" style="fill: none; stroke: #b0b0b0; stroke-opacity: 0.3; stroke-width: 0.8; stroke-linecap: square"/>
     </g>
     <g id="line2d_14">
      <defs>
       <path id="me1ac4a3f6e" d="M 0 0 
L -3.5 0 
" style="stroke: #000000; stroke-width: 0.8"/>
      </defs>
      <g>
       <use xlink:href="#me1ac4a3f6e" x="42.53875" y="298.370054" style="stroke: #000000; stroke-width: 0.8"/>
      </g>
     </g>
     <g id="text_8">
      <!-- 0 -->
      <g transform="translate(29.17625 302.169273) scale(0.1 -0.1)">
       <use xlink:href="#DejaVuSans-30"/>
      </g>
     </g>
    </g>
    <g id="ytick_2">
     <g id="line2d_15">
      <path d="M 42.53875 260.752229 
L 347.28875 260.752229 
" clip-path="url(#pd4b72178f0)" style="fill: none; stroke: #b0b0b0; stroke-opacity: 0.3; stroke-width: 0.8; stroke-linecap: square"/>
     </g>
     <g id="line2d_16">
      <g>
       <use xlink:href="#me1ac4a3f6e" x="42.53875" y="260.752229" style="stroke: #000000; stroke-width: 0.8"/>
      </g>
     </g>
     <g id="text_9">
      <!-- 5 -->
      <g transform="translate(29.17625 264.551448) scale(0.1 -0.1)">
       <defs>
        <path id="DejaVuSans-35" d="M 691 4666 
L 3169 4666 
L 3169 4134 
L 1269 4134 
L 1269 2991 
Q 1406 3038 1543 3061 
Q 1681 3084 1819 3084 
Q 2600 3084 3056 2656 
Q 3513 2228 3513 1497 
Q 3513 744 3044 326 
Q 2575 -91 1722 -91 
Q 1428 -91 1123 -41 
Q 819 9 494 109 
L 494 744 
Q 775 591 1075 516 
Q 1375 441 1709 441 
Q 2250 441 2565 725 
Q 2881 1009 2881 1497 
Q 2881 1984 2565 2268 
Q 2250 2553 1709 2553 
Q 1456 2553 1204 2497 
Q 953 2441 691 2322 
L 691 4666 
z
" transform="scale(0.015625)"/>
       </defs>
       <use xlink:href="#DejaVuSans-35"/>
      </g>
     </g>
    </g>
    <g id="ytick_3">
     <g id="line2d_17">
      <path d="M 42.53875 223.134404 
L 347.28875 223.134404 
" clip-path="url(#pd4b72178f0)" style="fill: none; stroke: #b0b0b0; stroke-opacity: 0.3; stroke-width: 0.8; stroke-linecap: square"/>
     </g>
     <g id="line2d_18">
      <g>
       <use xlink:href="#me1ac4a3f6e" x="42.53875" y="223.134404" style="stroke: #000000; stroke-width: 0.8"/>
      </g>
     </g>
     <g id="text_10">
      <!-- 10 -->
      <g transform="translate(22.81375 226.933623) scale(0.1 -0.1)">
       <use xlink:href="#DejaVuSans-31"/>
       <use xlink:href="#DejaVuSans-30" x="63.623047"/>
      </g>
     </g>
    </g>
    <g id="ytick_4">
     <g id="line2d_19">
      <path d="M 42.53875 185.516579 
L 347.28875 185.516579 
" clip-path="url(#pd4b72178f0)" style="fill: none; stroke: #b0b0b0; stroke-opacity: 0.3; stroke-width: 0.8; stroke-linecap: square"/>
     </g>
     <g id="line2d_20">
      <g>
       <use xlink:href="#me1ac4a3f6e" x="42.53875" y="185.516579" style="stroke: #000000; stroke-width: 0.8"/>
      </g>
     </g>
     <g id="text_11">
      <!-- 15 -->
      <g transform="translate(22.81375 189.315798) scale(0.1 -0.1)">
       <use xlink:href="#DejaVuSans-31"/>
       <use xlink:href="#DejaVuSans-35" x="63.623047"/>
      </g>
     </g>
    </g>
    <g id="ytick_5">
     <g id="line2d_21">
      <path d="M 42.53875 147.898755 
L 347.28875 147.898755 
" clip-path="url(#pd4b72178f0)" style="fill: none; stroke: #b0b0b0; stroke-opacity: 0.3; stroke-width: 0.8; stroke-linecap: square"/>
     </g>
     <g id="line2d_22">
      <g>
       <use xlink:href="#me1ac4a3f6e" x="42.53875" y="147.898755" style="stroke: #000000; stroke-width: 0.8"/>
      </g>
     </g>
     <g id="text_12">
      <!-- 20 -->
      <g transform="translate(22.81375 151.697973) scale(0.1 -0.1)">
       <use xlink:href="#DejaVuSans-32"/>
       <use xlink:href="#DejaVuSans-30" x="63.623047"/>
      </g>
     </g>
    </g>
    <g id="ytick_6">
     <g id="line2d_23">
      <path d="M 42.53875 110.28093 
L 347.28875 110.28093 
" clip-path="url(#pd4b72178f0)" style="fill: none; stroke: #b0b0b0; stroke-opacity: 0.3; stroke-width: 0.8; stroke-linecap: square"/>
     </g>
     <g id="line2d_24">
      <g>
       <use xlink:href="#me1ac4a3f6e" x="42.53875" y="110.28093" style="stroke: #000000; stroke-width: 0.8"/>
      </g>
     </g>
     <g id="text_13">
      <!-- 25 -->
      <g transform="translate(22.81375 114.080148) scale(0.1 -0.1)">
       <use xlink:href="#DejaVuSans-32"/>
       <use xlink:href="#DejaVuSans-35" x="63.623047"/>
      </g>
     </g>
    </g>
    <g id="ytick_7">
     <g id="line2d_25">
      <path d="M 42.53875 72.663105 
L 347.28875 72.663105 
" clip-path="url(#pd4b72178f0)" style="fill: none; stroke: #b0b0b0; stroke-opacity: 0.3; stroke-width: 0.8; stroke-linecap: square"/>
     </g>
     <g id="line2d_26">
      <g>
       <use xlink:href="#me1ac4a3f6e" x="42.53875" y="72.663105" style="stroke: #000000; stroke-width: 0.8"/>
      </g>
     </g>
     <g id="text_14">
      <!-- 30 -->
      <g transform="translate(22.81375 76.462323) scale(0.1 -0.1)">
       <defs>
        <path id="DejaVuSans-33" d="M 2597 2516 
Q 3050 2419 3304 2112 
Q 3559 1806 3559 1356 
Q 3559 666 3084 287 
Q 2609 -91 1734 -91 
Q 1441 -91 1130 -33 
Q 819 25 488 141 
L 488 750 
Q 750 597 1062 519 
Q 1375 441 1716 441 
Q 2309 441 2620 675 
Q 2931 909 2931 1356 
Q 2931 1769 2642 2001 
Q 2353 2234 1838 2234 
L 1294 2234 
L 1294 2753 
L 1863 2753 
Q 2328 2753 2575 2939 
Q 2822 3125 2822 3475 
Q 2822 3834 2567 4026 
Q 2313 4219 1838 4219 
Q 1578 4219 1281 4162 
Q 984 4106 628 3988 
L 628 4550 
Q 988 4650 1302 4700 
Q 1616 4750 1894 4750 
Q 2613 4750 3031 4423 
Q 3450 4097 3450 3541 
Q 3450 3153 3228 2886 
Q 3006 2619 2597 2516 
z
" transform="scale(0.015625)"/>
       </defs>
       <use xlink:href="#DejaVuSans-33"/>
       <use xlink:href="#DejaVuSans-30" x="63.623047"/>
      </g>
     </g>
    </g>
    <g id="text_15">
     <!-- Time (seconds) -->
     <g transform="translate(16.318125 221.605243) rotate(-90) scale(0.12 -0.12)">
      <defs>
       <path id="DejaVuSans-54" d="M -19 4666 
L 3928 4666 
L 3928 4134 
L 2272 4134 
L 2272 0 
L 1638 0 
L 1638 4134 
L -19 4134 
L -19 4666 
z
" transform="scale(0.015625)"/>
       <path id="DejaVuSans-69" d="M 603 3500 
L 1178 3500 
L 1178 0 
L 603 0 
L 603 3500 
z
M 603 4863 
L 1178 4863 
L 1178 4134 
L 603 4134 
L 603 4863 
z
" transform="scale(0.015625)"/>
       <path id="DejaVuSans-28" d="M 1984 4856 
Q 1566 4138 1362 3434 
Q 1159 2731 1159 2009 
Q 1159 1288 1364 580 
Q 1569 -128 1984 -844 
L 1484 -844 
Q 1016 -109 783 600 
Q 550 1309 550 2009 
Q 550 2706 781 3412 
Q 1013 4119 1484 4856 
L 1984 4856 
z
" transform="scale(0.015625)"/>
       <path id="DejaVuSans-64" d="M 2906 2969 
L 2906 4863 
L 3481 4863 
L 3481 0 
L 2906 0 
L 2906 525 
Q 2725 213 2448 61 
Q 2172 -91 1784 -91 
Q 1150 -91 751 415 
Q 353 922 353 1747 
Q 353 2572 751 3078 
Q 1150 3584 1784 3584 
Q 2172 3584 2448 3432 
Q 2725 3281 2906 2969 
z
M 947 1747 
Q 947 1113 1208 752 
Q 1469 391 1925 391 
Q 2381 391 2643 752 
Q 2906 1113 2906 1747 
Q 2906 2381 2643 2742 
Q 2381 3103 1925 3103 
Q 1469 3103 1208 2742 
Q 947 2381 947 1747 
z
" transform="scale(0.015625)"/>
       <path id="DejaVuSans-29" d="M 513 4856 
L 1013 4856 
Q 1481 4119 1714 3412 
Q 1947 2706 1947 2009 
Q 1947 1309 1714 600 
Q 1481 -109 1013 -844 
L 513 -844 
Q 928 -128 1133 580 
Q 1338 1288 1338 2009 
Q 1338 2731 1133 3434 
Q 928 4138 513 4856 
z
" transform="scale(0.015625)"/>
      </defs>
      <use xlink:href="#DejaVuSans-54"/>
      <use xlink:href="#DejaVuSans-69" x="57.958984"/>
      <use xlink:href="#DejaVuSans-6d" x="85.742188"/>
      <use xlink:href="#DejaVuSans-65" x="183.154297"/>
      <use xlink:href="#DejaVuSans-20" x="244.677734"/>
      <use xlink:href="#DejaVuSans-28" x="276.464844"/>
      <use xlink:href="#DejaVuSans-73" x="315.478516"/>
      <use xlink:href="#DejaVuSans-65" x="367.578125"/>
      <use xlink:href="#DejaVuSans-63" x="429.101562"/>
      <use xlink:href="#DejaVuSans-6f" x="484.082031"/>
      <use xlink:href="#DejaVuSans-6e" x="545.263672"/>
      <use xlink:href="#DejaVuSans-64" x="608.642578"/>
      <use xlink:href="#DejaVuSans-73" x="672.119141"/>
      <use xlink:href="#DejaVuSans-29" x="724.21875"/>
     </g>
    </g>
   </g>
   <g id="line2d_27">
    <path d="M 117.341023 285.429522 
L 186.602386 269.780507 
L 325.125114 221.103042 
" clip-path="url(#pd4b72178f0)" style="fill: none; stroke-dasharray: 5.55,2.4; stroke-dashoffset: 0; stroke: #2196f3; stroke-opacity: 0.5; stroke-width: 1.5"/>
   </g>
   <g id="line2d_28">
    <path d="M 117.341023 227.799015 
L 186.602386 53.929428 
" clip-path="url(#pd4b72178f0)" style="fill: none; stroke-dasharray: 5.55,2.4; stroke-dashoffset: 0; stroke: #ff5722; stroke-opacity: 0.5; stroke-width: 1.5"/>
   </g>
   <g id="patch_3">
    <path d="M 42.53875 309.881109 
L 42.53875 41.741253 
" style="fill: none; stroke: #000000; stroke-width: 0.8; stroke-linejoin: miter; stroke-linecap: square"/>
   </g>
   <g id="patch_4">
    <path d="M 347.28875 309.881109 
L 347.28875 41.741253 
" style="fill: none; stroke: #000000; stroke-width: 0.8; stroke-linejoin: miter; stroke-linecap: square"/>
   </g>
   <g id="patch_5">
    <path d="M 42.53875 309.881109 
L 347.28875 309.881109 
" style="fill: none; stroke: #000000; stroke-width: 0.8; stroke-linejoin: miter; stroke-linecap: square"/>
   </g>
   <g id="patch_6">
    <path d="M 42.53875 41.741253 
L 347.28875 41.741253 
" style="fill: none; stroke: #000000; stroke-width: 0.8; stroke-linejoin: miter; stroke-linecap: square"/>
   </g>
   <g id="line2d_29">
    <path d="M 50.850114 297.692933 
L 55.005795 297.166284 
L 61.931932 296.263456 
L 75.784205 294.307329 
L 89.636477 291.072196 
L 103.48875 288.138006 
L 117.341023 285.429522 
" clip-path="url(#pd4b72178f0)" style="fill: none; stroke: #2196f3; stroke-width: 2.5; stroke-linecap: square"/>
    <defs>
     <path id="m7dd38b63df" d="M 0 4 
C 1.060812 4 2.078319 3.578535 2.828427 2.828427 
C 3.578535 2.078319 4 1.060812 4 0 
C 4 -1.060812 3.578535 -2.078319 2.828427 -2.828427 
C 2.078319 -3.578535 1.060812 -4 0 -4 
C -1.060812 -4 -2.078319 -3.578535 -2.828427 -2.828427 
C -3.578535 -2.078319 -4 -1.060812 -4 0 
C -4 1.060812 -3.578535 2.078319 -2.828427 2.828427 
C -2.078319 3.578535 -1.060812 4 0 4 
z
" style="stroke: #2196f3"/>
    </defs>
    <g clip-path="url(#pd4b72178f0)">
     <use xlink:href="#m7dd38b63df" x="50.850114" y="297.692933" style="fill: #2196f3; stroke: #2196f3"/>
     <use xlink:href="#m7dd38b63df" x="55.005795" y="297.166284" style="fill: #2196f3; stroke: #2196f3"/>
     <use xlink:href="#m7dd38b63df" x="61.931932" y="296.263456" style="fill: #2196f3; stroke: #2196f3"/>
     <use xlink:href="#m7dd38b63df" x="75.784205" y="294.307329" style="fill: #2196f3; stroke: #2196f3"/>
     <use xlink:href="#m7dd38b63df" x="89.636477" y="291.072196" style="fill: #2196f3; stroke: #2196f3"/>
     <use xlink:href="#m7dd38b63df" x="103.48875" y="288.138006" style="fill: #2196f3; stroke: #2196f3"/>
     <use xlink:href="#m7dd38b63df" x="117.341023" y="285.429522" style="fill: #2196f3; stroke: #2196f3"/>
    </g>
   </g>
   <g id="line2d_30">
    <path d="M 50.850114 296.790106 
L 55.005795 294.683507 
L 61.931932 290.620782 
L 75.784205 280.012556 
L 89.636477 260.300815 
L 103.48875 242.093788 
L 117.341023 227.799015 
" clip-path="url(#pd4b72178f0)" style="fill: none; stroke: #ff5722; stroke-width: 2.5; stroke-linecap: square"/>
    <defs>
     <path id="m619e4a897b" d="M -4 4 
L 4 4 
L 4 -4 
L -4 -4 
z
" style="stroke: #ff5722; stroke-linejoin: miter"/>
    </defs>
    <g clip-path="url(#pd4b72178f0)">
     <use xlink:href="#m619e4a897b" x="50.850114" y="296.790106" style="fill: #ff5722; stroke: #ff5722; stroke-linejoin: miter"/>
     <use xlink:href="#m619e4a897b" x="55.005795" y="294.683507" style="fill: #ff5722; stroke: #ff5722; stroke-linejoin: miter"/>
     <use xlink:href="#m619e4a897b" x="61.931932" y="290.620782" style="fill: #ff5722; stroke: #ff5722; stroke-linejoin: miter"/>
     <use xlink:href="#m619e4a897b" x="75.784205" y="280.012556" style="fill: #ff5722; stroke: #ff5722; stroke-linejoin: miter"/>
     <use xlink:href="#m619e4a897b" x="89.636477" y="260.300815" style="fill: #ff5722; stroke: #ff5722; stroke-linejoin: miter"/>
     <use xlink:href="#m619e4a897b" x="103.48875" y="242.093788" style="fill: #ff5722; stroke: #ff5722; stroke-linejoin: miter"/>
     <use xlink:href="#m619e4a897b" x="117.341023" y="227.799015" style="fill: #ff5722; stroke: #ff5722; stroke-linejoin: miter"/>
    </g>
   </g>
   <g id="line2d_31">
    <g clip-path="url(#pd4b72178f0)">
     <use xlink:href="#m7dd38b63df" x="186.602386" y="269.780507" style="fill: #2196f3; stroke: #2196f3"/>
    </g>
   </g>
   <g id="line2d_32">
    <g clip-path="url(#pd4b72178f0)">
     <use xlink:href="#m619e4a897b" x="186.602386" y="53.929428" style="fill: #ff5722; stroke: #ff5722; stroke-linejoin: miter"/>
    </g>
   </g>
   <g id="line2d_33">
    <g clip-path="url(#pd4b72178f0)">
     <use xlink:href="#m7dd38b63df" x="325.125114" y="221.103042" style="fill: #2196f3; stroke: #2196f3"/>
    </g>
   </g>
   <g id="patch_7">
    <path d="M 275.899092 115.964481 
Q 300.087715 167.627339 323.565223 217.771377 
" style="fill: none; stroke: #2196f3; stroke-width: 1.5; stroke-linecap: round"/>
    <path d="M 323.668898 213.74779 
L 323.565223 217.771377 
L 320.408558 215.274285 
" style="fill: none; stroke: #2196f3; stroke-width: 1.5; stroke-linecap: round"/>
   </g>
   <g id="text_16">
    <!-- 1000 seqs -->
    <g style="fill: #2196f3" transform="translate(243.99571 100.202898) scale(0.09 -0.09)">
     <defs>
      <path id="DejaVuSans-Bold-31" d="M 750 831 
L 1813 831 
L 1813 3847 
L 722 3622 
L 722 4441 
L 1806 4666 
L 2950 4666 
L 2950 831 
L 4013 831 
L 4013 0 
L 750 0 
L 750 831 
z
" transform="scale(0.015625)"/>
      <path id="DejaVuSans-Bold-30" d="M 2944 2338 
Q 2944 3213 2780 3570 
Q 2616 3928 2228 3928 
Q 1841 3928 1675 3570 
Q 1509 3213 1509 2338 
Q 1509 1453 1675 1090 
Q 1841 728 2228 728 
Q 2613 728 2778 1090 
Q 2944 1453 2944 2338 
z
M 4147 2328 
Q 4147 1169 3647 539 
Q 3147 -91 2228 -91 
Q 1306 -91 806 539 
Q 306 1169 306 2328 
Q 306 3491 806 4120 
Q 1306 4750 2228 4750 
Q 3147 4750 3647 4120 
Q 4147 3491 4147 2328 
z
" transform="scale(0.015625)"/>
      <path id="DejaVuSans-Bold-20" transform="scale(0.015625)"/>
      <path id="DejaVuSans-Bold-73" d="M 3272 3391 
L 3272 2541 
Q 2913 2691 2578 2766 
Q 2244 2841 1947 2841 
Q 1628 2841 1473 2761 
Q 1319 2681 1319 2516 
Q 1319 2381 1436 2309 
Q 1553 2238 1856 2203 
L 2053 2175 
Q 2913 2066 3209 1816 
Q 3506 1566 3506 1031 
Q 3506 472 3093 190 
Q 2681 -91 1863 -91 
Q 1516 -91 1145 -36 
Q 775 19 384 128 
L 384 978 
Q 719 816 1070 734 
Q 1422 653 1784 653 
Q 2113 653 2278 743 
Q 2444 834 2444 1013 
Q 2444 1163 2330 1236 
Q 2216 1309 1875 1350 
L 1678 1375 
Q 931 1469 631 1722 
Q 331 1975 331 2491 
Q 331 3047 712 3315 
Q 1094 3584 1881 3584 
Q 2191 3584 2531 3537 
Q 2872 3491 3272 3391 
z
" transform="scale(0.015625)"/>
      <path id="DejaVuSans-Bold-65" d="M 4031 1759 
L 4031 1441 
L 1416 1441 
Q 1456 1047 1700 850 
Q 1944 653 2381 653 
Q 2734 653 3104 758 
Q 3475 863 3866 1075 
L 3866 213 
Q 3469 63 3072 -14 
Q 2675 -91 2278 -91 
Q 1328 -91 801 392 
Q 275 875 275 1747 
Q 275 2603 792 3093 
Q 1309 3584 2216 3584 
Q 3041 3584 3536 3087 
Q 4031 2591 4031 1759 
z
M 2881 2131 
Q 2881 2450 2695 2645 
Q 2509 2841 2209 2841 
Q 1884 2841 1681 2658 
Q 1478 2475 1428 2131 
L 2881 2131 
z
" transform="scale(0.015625)"/>
      <path id="DejaVuSans-Bold-71" d="M 2181 2772 
Q 1825 2772 1636 2509 
Q 1447 2247 1447 1747 
Q 1447 1247 1636 984 
Q 1825 722 2181 722 
Q 2541 722 2730 984 
Q 2919 1247 2919 1747 
Q 2919 2247 2730 2509 
Q 2541 2772 2181 2772 
z
M 2919 506 
Q 2688 197 2409 53 
Q 2131 -91 1766 -91 
Q 1119 -91 703 423 
Q 288 938 288 1747 
Q 288 2556 703 3067 
Q 1119 3578 1766 3578 
Q 2131 3578 2409 3434 
Q 2688 3291 2919 2981 
L 2919 3500 
L 4044 3500 
L 4044 -1331 
L 2919 -1331 
L 2919 506 
z
" transform="scale(0.015625)"/>
     </defs>
     <use xlink:href="#DejaVuSans-Bold-31"/>
     <use xlink:href="#DejaVuSans-Bold-30" x="69.580078"/>
     <use xlink:href="#DejaVuSans-Bold-30" x="139.160156"/>
     <use xlink:href="#DejaVuSans-Bold-30" x="208.740234"/>
     <use xlink:href="#DejaVuSans-Bold-20" x="278.320312"/>
     <use xlink:href="#DejaVuSans-Bold-73" x="313.134766"/>
     <use xlink:href="#DejaVuSans-Bold-65" x="372.65625"/>
     <use xlink:href="#DejaVuSans-Bold-71" x="440.478516"/>
     <use xlink:href="#DejaVuSans-Bold-73" x="512.060547"/>
    </g>
    <!-- 10.3s -->
    <g style="fill: #2196f3" transform="translate(255.935476 110.28093) scale(0.09 -0.09)">
     <defs>
      <path id="DejaVuSans-Bold-2e" d="M 653 1209 
L 1778 1209 
L 1778 0 
L 653 0 
L 653 1209 
z
" transform="scale(0.015625)"/>
      <path id="DejaVuSans-Bold-33" d="M 2981 2516 
Q 3453 2394 3698 2092 
Q 3944 1791 3944 1325 
Q 3944 631 3412 270 
Q 2881 -91 1863 -91 
Q 1503 -91 1142 -33 
Q 781 25 428 141 
L 428 1069 
Q 766 900 1098 814 
Q 1431 728 1753 728 
Q 2231 728 2486 893 
Q 2741 1059 2741 1369 
Q 2741 1688 2480 1852 
Q 2219 2016 1709 2016 
L 1228 2016 
L 1228 2791 
L 1734 2791 
Q 2188 2791 2409 2933 
Q 2631 3075 2631 3366 
Q 2631 3634 2415 3781 
Q 2200 3928 1806 3928 
Q 1516 3928 1219 3862 
Q 922 3797 628 3669 
L 628 4550 
Q 984 4650 1334 4700 
Q 1684 4750 2022 4750 
Q 2931 4750 3382 4451 
Q 3834 4153 3834 3553 
Q 3834 3144 3618 2883 
Q 3403 2622 2981 2516 
z
" transform="scale(0.015625)"/>
     </defs>
     <use xlink:href="#DejaVuSans-Bold-31"/>
     <use xlink:href="#DejaVuSans-Bold-30" x="69.580078"/>
     <use xlink:href="#DejaVuSans-Bold-2e" x="139.160156"/>
     <use xlink:href="#DejaVuSans-Bold-33" x="177.148438"/>
     <use xlink:href="#DejaVuSans-Bold-73" x="246.728516"/>
    </g>
   </g>
   <g id="text_17">
    <!-- Runtime -->
    <g transform="translate(161.769844 35.741253) scale(0.14 -0.14)">
     <defs>
      <path id="DejaVuSans-Bold-52" d="M 2297 2597 
Q 2675 2597 2839 2737 
Q 3003 2878 3003 3200 
Q 3003 3519 2839 3656 
Q 2675 3794 2297 3794 
L 1791 3794 
L 1791 2597 
L 2297 2597 
z
M 1791 1766 
L 1791 0 
L 588 0 
L 588 4666 
L 2425 4666 
Q 3347 4666 3776 4356 
Q 4206 4047 4206 3378 
Q 4206 2916 3982 2619 
Q 3759 2322 3309 2181 
Q 3556 2125 3751 1926 
Q 3947 1728 4147 1325 
L 4800 0 
L 3519 0 
L 2950 1159 
Q 2778 1509 2601 1637 
Q 2425 1766 2131 1766 
L 1791 1766 
z
" transform="scale(0.015625)"/>
      <path id="DejaVuSans-Bold-75" d="M 500 1363 
L 500 3500 
L 1625 3500 
L 1625 3150 
Q 1625 2866 1622 2436 
Q 1619 2006 1619 1863 
Q 1619 1441 1641 1255 
Q 1663 1069 1716 984 
Q 1784 875 1895 815 
Q 2006 756 2150 756 
Q 2500 756 2700 1025 
Q 2900 1294 2900 1772 
L 2900 3500 
L 4019 3500 
L 4019 0 
L 2900 0 
L 2900 506 
Q 2647 200 2364 54 
Q 2081 -91 1741 -91 
Q 1134 -91 817 281 
Q 500 653 500 1363 
z
" transform="scale(0.015625)"/>
      <path id="DejaVuSans-Bold-6e" d="M 4056 2131 
L 4056 0 
L 2931 0 
L 2931 347 
L 2931 1631 
Q 2931 2084 2911 2256 
Q 2891 2428 2841 2509 
Q 2775 2619 2662 2680 
Q 2550 2741 2406 2741 
Q 2056 2741 1856 2470 
Q 1656 2200 1656 1722 
L 1656 0 
L 538 0 
L 538 3500 
L 1656 3500 
L 1656 2988 
Q 1909 3294 2193 3439 
Q 2478 3584 2822 3584 
Q 3428 3584 3742 3212 
Q 4056 2841 4056 2131 
z
" transform="scale(0.015625)"/>
      <path id="DejaVuSans-Bold-74" d="M 1759 4494 
L 1759 3500 
L 2913 3500 
L 2913 2700 
L 1759 2700 
L 1759 1216 
Q 1759 972 1856 886 
Q 1953 800 2241 800 
L 2816 800 
L 2816 0 
L 1856 0 
Q 1194 0 917 276 
Q 641 553 641 1216 
L 641 2700 
L 84 2700 
L 84 3500 
L 641 3500 
L 641 4494 
L 1759 4494 
z
" transform="scale(0.015625)"/>
      <path id="DejaVuSans-Bold-69" d="M 538 3500 
L 1656 3500 
L 1656 0 
L 538 0 
L 538 3500 
z
M 538 4863 
L 1656 4863 
L 1656 3950 
L 538 3950 
L 538 4863 
z
" transform="scale(0.015625)"/>
      <path id="DejaVuSans-Bold-6d" d="M 3781 2919 
Q 3994 3244 4286 3414 
Q 4578 3584 4928 3584 
Q 5531 3584 5847 3212 
Q 6163 2841 6163 2131 
L 6163 0 
L 5038 0 
L 5038 1825 
Q 5041 1866 5042 1909 
Q 5044 1953 5044 2034 
Q 5044 2406 4934 2573 
Q 4825 2741 4581 2741 
Q 4263 2741 4089 2478 
Q 3916 2216 3909 1719 
L 3909 0 
L 2784 0 
L 2784 1825 
Q 2784 2406 2684 2573 
Q 2584 2741 2328 2741 
Q 2006 2741 1831 2477 
Q 1656 2213 1656 1722 
L 1656 0 
L 531 0 
L 531 3500 
L 1656 3500 
L 1656 2988 
Q 1863 3284 2130 3434 
Q 2397 3584 2719 3584 
Q 3081 3584 3359 3409 
Q 3638 3234 3781 2919 
z
" transform="scale(0.015625)"/>
     </defs>
     <use xlink:href="#DejaVuSans-Bold-52"/>
     <use xlink:href="#DejaVuSans-Bold-75" x="77.001953"/>
     <use xlink:href="#DejaVuSans-Bold-6e" x="148.193359"/>
     <use xlink:href="#DejaVuSans-Bold-74" x="219.384766"/>
     <use xlink:href="#DejaVuSans-Bold-69" x="267.1875"/>
     <use xlink:href="#DejaVuSans-Bold-6d" x="301.464844"/>
     <use xlink:href="#DejaVuSans-Bold-65" x="405.664062"/>
    </g>
   </g>
   <g id="legend_1">
    <g id="patch_8">
     <path d="M 255.137969 82.833128 
L 339.58875 82.833128 
Q 341.78875 82.833128 341.78875 80.633128 
L 341.78875 49.441253 
Q 341.78875 47.241253 339.58875 47.241253 
L 255.137969 47.241253 
Q 252.937969 47.241253 252.937969 49.441253 
L 252.937969 80.633128 
Q 252.937969 82.833128 255.137969 82.833128 
z
" style="fill: #ffffff; opacity: 0.9; stroke: #cccccc; stroke-linejoin: miter"/>
    </g>
    <g id="line2d_34">
     <path d="M 257.337969 56.149534 
L 268.337969 56.149534 
L 279.337969 56.149534 
" style="fill: none; stroke: #2196f3; stroke-width: 2.5; stroke-linecap: square"/>
     <g>
      <use xlink:href="#m7dd38b63df" x="268.337969" y="56.149534" style="fill: #2196f3; stroke: #2196f3"/>
     </g>
    </g>
    <g id="text_18">
     <!-- SNPick -->
     <g transform="translate(288.137969 59.999534) scale(0.11 -0.11)">
      <defs>
       <path id="DejaVuSans-53" d="M 3425 4513 
L 3425 3897 
Q 3066 4069 2747 4153 
Q 2428 4238 2131 4238 
Q 1616 4238 1336 4038 
Q 1056 3838 1056 3469 
Q 1056 3159 1242 3001 
Q 1428 2844 1947 2747 
L 2328 2669 
Q 3034 2534 3370 2195 
Q 3706 1856 3706 1288 
Q 3706 609 3251 259 
Q 2797 -91 1919 -91 
Q 1588 -91 1214 -16 
Q 841 59 441 206 
L 441 856 
Q 825 641 1194 531 
Q 1563 422 1919 422 
Q 2459 422 2753 634 
Q 3047 847 3047 1241 
Q 3047 1584 2836 1778 
Q 2625 1972 2144 2069 
L 1759 2144 
Q 1053 2284 737 2584 
Q 422 2884 422 3419 
Q 422 4038 858 4394 
Q 1294 4750 2059 4750 
Q 2388 4750 2728 4690 
Q 3069 4631 3425 4513 
z
" transform="scale(0.015625)"/>
       <path id="DejaVuSans-50" d="M 1259 4147 
L 1259 2394 
L 2053 2394 
Q 2494 2394 2734 2622 
Q 2975 2850 2975 3272 
Q 2975 3691 2734 3919 
Q 2494 4147 2053 4147 
L 1259 4147 
z
M 628 4666 
L 2053 4666 
Q 2838 4666 3239 4311 
Q 3641 3956 3641 3272 
Q 3641 2581 3239 2228 
Q 2838 1875 2053 1875 
L 1259 1875 
L 1259 0 
L 628 0 
L 628 4666 
z
" transform="scale(0.015625)"/>
       <path id="DejaVuSans-6b" d="M 581 4863 
L 1159 4863 
L 1159 1991 
L 2875 3500 
L 3609 3500 
L 1753 1863 
L 3688 0 
L 2938 0 
L 1159 1709 
L 1159 0 
L 581 0 
L 581 4863 
z
" transform="scale(0.015625)"/>
      </defs>
      <use xlink:href="#DejaVuSans-53"/>
      <use xlink:href="#DejaVuSans-4e" x="63.476562"/>
      <use xlink:href="#DejaVuSans-50" x="138.28125"/>
      <use xlink:href="#DejaVuSans-69" x="196.333984"/>
      <use xlink:href="#DejaVuSans-63" x="224.117188"/>
      <use xlink:href="#DejaVuSans-6b" x="279.097656"/>
     </g>
    </g>
    <g id="line2d_35">
     <path d="M 257.337969 72.295471 
L 268.337969 72.295471 
L 279.337969 72.295471 
" style="fill: none; stroke: #ff5722; stroke-width: 2.5; stroke-linecap: square"/>
     <g>
      <use xlink:href="#m619e4a897b" x="268.337969" y="72.295471" style="fill: #ff5722; stroke: #ff5722; stroke-linejoin: miter"/>
     </g>
    </g>
    <g id="text_19">
     <!-- snp-sites -->
     <g transform="translate(288.137969 76.145471) scale(0.11 -0.11)">
      <defs>
       <path id="DejaVuSans-70" d="M 1159 525 
L 1159 -1331 
L 581 -1331 
L 581 3500 
L 1159 3500 
L 1159 2969 
Q 1341 3281 1617 3432 
Q 1894 3584 2278 3584 
Q 2916 3584 3314 3078 
Q 3713 2572 3713 1747 
Q 3713 922 3314 415 
Q 2916 -91 2278 -91 
Q 1894 -91 1617 61 
Q 1341 213 1159 525 
z
M 3116 1747 
Q 3116 2381 2855 2742 
Q 2594 3103 2138 3103 
Q 1681 3103 1420 2742 
Q 1159 2381 1159 1747 
Q 1159 1113 1420 752 
Q 1681 391 2138 391 
Q 2594 391 2855 752 
Q 3116 1113 3116 1747 
z
" transform="scale(0.015625)"/>
       <path id="DejaVuSans-2d" d="M 313 2009 
L 1997 2009 
L 1997 1497 
L 313 1497 
L 313 2009 
z
" transform="scale(0.015625)"/>
       <path id="DejaVuSans-74" d="M 1172 4494 
L 1172 3500 
L 2356 3500 
L 2356 3053 
L 1172 3053 
L 1172 1153 
Q 1172 725 1289 603 
Q 1406 481 1766 481 
L 2356 481 
L 2356 0 
L 1766 0 
Q 1100 0 847 248 
Q 594 497 594 1153 
L 594 3053 
L 172 3053 
L 172 3500 
L 594 3500 
L 594 4494 
L 1172 4494 
z
" transform="scale(0.015625)"/>
      </defs>
      <use xlink:href="#DejaVuSans-73"/>
      <use xlink:href="#DejaVuSans-6e" x="52.099609"/>
      <use xlink:href="#DejaVuSans-70" x="115.478516"/>
      <use xlink:href="#DejaVuSans-2d" x="178.955078"/>
      <use xlink:href="#DejaVuSans-73" x="215.039062"/>
      <use xlink:href="#DejaVuSans-69" x="267.138672"/>
      <use xlink:href="#DejaVuSans-74" x="294.921875"/>
      <use xlink:href="#DejaVuSans-65" x="334.130859"/>
      <use xlink:href="#DejaVuSans-73" x="395.654297"/>
     </g>
    </g>
   </g>
  </g>
  <g id="axes_2">
   <g id="patch_9">
    <path d="M 401.03875 309.881109 
L 705.78875 309.881109 
L 705.78875 41.741253 
L 401.03875 41.741253 
z
" style="fill: #ffffff"/>
   </g>
   <g id="matplotlib.axis_3">
    <g id="xtick_7">
     <g id="line2d_36">
      <path d="M 406.579659 309.881109 
L 406.579659 41.741253 
" clip-path="url(#p3e86a3c942)" style="fill: none; stroke: #b0b0b0; stroke-opacity: 0.3; stroke-width: 0.8; stroke-linecap: square"/>
     </g>
     <g id="line2d_37">
      <g>
       <use xlink:href="#md2b81e8ccd" x="406.579659" y="309.881109" style="stroke: #000000; stroke-width: 0.8"/>
      </g>
     </g>
     <g id="text_20">
      <!-- 0 -->
      <g transform="translate(403.398409 324.479546) scale(0.1 -0.1)">
       <use xlink:href="#DejaVuSans-30"/>
      </g>
     </g>
    </g>
    <g id="xtick_8">
     <g id="line2d_38">
      <path d="M 461.98875 309.881109 
L 461.98875 41.741253 
" clip-path="url(#p3e86a3c942)" style="fill: none; stroke: #b0b0b0; stroke-opacity: 0.3; stroke-width: 0.8; stroke-linecap: square"/>
     </g>
     <g id="line2d_39">
      <g>
       <use xlink:href="#md2b81e8ccd" x="461.98875" y="309.881109" style="stroke: #000000; stroke-width: 0.8"/>
      </g>
     </g>
     <g id="text_21">
      <!-- 200 -->
      <g transform="translate(452.445 324.479546) scale(0.1 -0.1)">
       <use xlink:href="#DejaVuSans-32"/>
       <use xlink:href="#DejaVuSans-30" x="63.623047"/>
       <use xlink:href="#DejaVuSans-30" x="127.246094"/>
      </g>
     </g>
    </g>
    <g id="xtick_9">
     <g id="line2d_40">
      <path d="M 517.397841 309.881109 
L 517.397841 41.741253 
" clip-path="url(#p3e86a3c942)" style="fill: none; stroke: #b0b0b0; stroke-opacity: 0.3; stroke-width: 0.8; stroke-linecap: square"/>
     </g>
     <g id="line2d_41">
      <g>
       <use xlink:href="#md2b81e8ccd" x="517.397841" y="309.881109" style="stroke: #000000; stroke-width: 0.8"/>
      </g>
     </g>
     <g id="text_22">
      <!-- 400 -->
      <g transform="translate(507.854091 324.479546) scale(0.1 -0.1)">
       <use xlink:href="#DejaVuSans-34"/>
       <use xlink:href="#DejaVuSans-30" x="63.623047"/>
       <use xlink:href="#DejaVuSans-30" x="127.246094"/>
      </g>
     </g>
    </g>
    <g id="xtick_10">
     <g id="line2d_42">
      <path d="M 572.806932 309.881109 
L 572.806932 41.741253 
" clip-path="url(#p3e86a3c942)" style="fill: none; stroke: #b0b0b0; stroke-opacity: 0.3; stroke-width: 0.8; stroke-linecap: square"/>
     </g>
     <g id="line2d_43">
      <g>
       <use xlink:href="#md2b81e8ccd" x="572.806932" y="309.881109" style="stroke: #000000; stroke-width: 0.8"/>
      </g>
     </g>
     <g id="text_23">
      <!-- 600 -->
      <g transform="translate(563.263182 324.479546) scale(0.1 -0.1)">
       <use xlink:href="#DejaVuSans-36"/>
       <use xlink:href="#DejaVuSans-30" x="63.623047"/>
       <use xlink:href="#DejaVuSans-30" x="127.246094"/>
      </g>
     </g>
    </g>
    <g id="xtick_11">
     <g id="line2d_44">
      <path d="M 628.216023 309.881109 
L 628.216023 41.741253 
" clip-path="url(#p3e86a3c942)" style="fill: none; stroke: #b0b0b0; stroke-opacity: 0.3; stroke-width: 0.8; stroke-linecap: square"/>
     </g>
     <g id="line2d_45">
      <g>
       <use xlink:href="#md2b81e8ccd" x="628.216023" y="309.881109" style="stroke: #000000; stroke-width: 0.8"/>
      </g>
     </g>
     <g id="text_24">
      <!-- 800 -->
      <g transform="translate(618.672273 324.479546) scale(0.1 -0.1)">
       <use xlink:href="#DejaVuSans-38"/>
       <use xlink:href="#DejaVuSans-30" x="63.623047"/>
       <use xlink:href="#DejaVuSans-30" x="127.246094"/>
      </g>
     </g>
    </g>
    <g id="xtick_12">
     <g id="line2d_46">
      <path d="M 683.625114 309.881109 
L 683.625114 41.741253 
" clip-path="url(#p3e86a3c942)" style="fill: none; stroke: #b0b0b0; stroke-opacity: 0.3; stroke-width: 0.8; stroke-linecap: square"/>
     </g>
     <g id="line2d_47">
      <g>
       <use xlink:href="#md2b81e8ccd" x="683.625114" y="309.881109" style="stroke: #000000; stroke-width: 0.8"/>
      </g>
     </g>
     <g id="text_25">
      <!-- 1000 -->
      <g transform="translate(670.900114 324.479546) scale(0.1 -0.1)">
       <use xlink:href="#DejaVuSans-31"/>
       <use xlink:href="#DejaVuSans-30" x="63.623047"/>
       <use xlink:href="#DejaVuSans-30" x="127.246094"/>
       <use xlink:href="#DejaVuSans-30" x="190.869141"/>
      </g>
     </g>
    </g>
    <g id="text_26">
     <!-- Number of sequences -->
     <g transform="translate(487.673437 339.677359) scale(0.12 -0.12)">
      <use xlink:href="#DejaVuSans-4e"/>
      <use xlink:href="#DejaVuSans-75" x="74.804688"/>
      <use xlink:href="#DejaVuSans-6d" x="138.183594"/>
      <use xlink:href="#DejaVuSans-62" x="235.595703"/>
      <use xlink:href="#DejaVuSans-65" x="299.072266"/>
      <use xlink:href="#DejaVuSans-72" x="360.595703"/>
      <use xlink:href="#DejaVuSans-20" x="401.708984"/>
      <use xlink:href="#DejaVuSans-6f" x="433.496094"/>
      <use xlink:href="#DejaVuSans-66" x="494.677734"/>
      <use xlink:href="#DejaVuSans-20" x="529.882812"/>
      <use xlink:href="#DejaVuSans-73" x="561.669922"/>
      <use xlink:href="#DejaVuSans-65" x="613.769531"/>
      <use xlink:href="#DejaVuSans-71" x="675.292969"/>
      <use xlink:href="#DejaVuSans-75" x="738.769531"/>
      <use xlink:href="#DejaVuSans-65" x="802.148438"/>
      <use xlink:href="#DejaVuSans-6e" x="863.671875"/>
      <use xlink:href="#DejaVuSans-63" x="927.050781"/>
      <use xlink:href="#DejaVuSans-65" x="982.03125"/>
      <use xlink:href="#DejaVuSans-73" x="1043.554688"/>
     </g>
    </g>
   </g>
   <g id="matplotlib.axis_4">
    <g id="ytick_8">
     <g id="line2d_48">
      <path d="M 401.03875 304.707711 
L 705.78875 304.707711 
" clip-path="url(#p3e86a3c942)" style="fill: none; stroke: #b0b0b0; stroke-opacity: 0.3; stroke-width: 0.8; stroke-linecap: square"/>
     </g>
     <g id="line2d_49">
      <g>
       <use xlink:href="#me1ac4a3f6e" x="401.03875" y="304.707711" style="stroke: #000000; stroke-width: 0.8"/>
      </g>
     </g>
     <g id="text_27">
      <!-- 0 -->
      <g transform="translate(387.67625 308.506929) scale(0.1 -0.1)">
       <use xlink:href="#DejaVuSans-30"/>
      </g>
     </g>
    </g>
    <g id="ytick_9">
     <g id="line2d_50">
      <path d="M 401.03875 269.633825 
L 705.78875 269.633825 
" clip-path="url(#p3e86a3c942)" style="fill: none; stroke: #b0b0b0; stroke-opacity: 0.3; stroke-width: 0.8; stroke-linecap: square"/>
     </g>
     <g id="line2d_51">
      <g>
       <use xlink:href="#me1ac4a3f6e" x="401.03875" y="269.633825" style="stroke: #000000; stroke-width: 0.8"/>
      </g>
     </g>
     <g id="text_28">
      <!-- 100 -->
      <g transform="translate(374.95125 273.433044) scale(0.1 -0.1)">
       <use xlink:href="#DejaVuSans-31"/>
       <use xlink:href="#DejaVuSans-30" x="63.623047"/>
       <use xlink:href="#DejaVuSans-30" x="127.246094"/>
      </g>
     </g>
    </g>
    <g id="ytick_10">
     <g id="line2d_52">
      <path d="M 401.03875 234.559939 
L 705.78875 234.559939 
" clip-path="url(#p3e86a3c942)" style="fill: none; stroke: #b0b0b0; stroke-opacity: 0.3; stroke-width: 0.8; stroke-linecap: square"/>
     </g>
     <g id="line2d_53">
      <g>
       <use xlink:href="#me1ac4a3f6e" x="401.03875" y="234.559939" style="stroke: #000000; stroke-width: 0.8"/>
      </g>
     </g>
     <g id="text_29">
      <!-- 200 -->
      <g transform="translate(374.95125 238.359158) scale(0.1 -0.1)">
       <use xlink:href="#DejaVuSans-32"/>
       <use xlink:href="#DejaVuSans-30" x="63.623047"/>
       <use xlink:href="#DejaVuSans-30" x="127.246094"/>
      </g>
     </g>
    </g>
    <g id="ytick_11">
     <g id="line2d_54">
      <path d="M 401.03875 199.486053 
L 705.78875 199.486053 
" clip-path="url(#p3e86a3c942)" style="fill: none; stroke: #b0b0b0; stroke-opacity: 0.3; stroke-width: 0.8; stroke-linecap: square"/>
     </g>
     <g id="line2d_55">
      <g>
       <use xlink:href="#me1ac4a3f6e" x="401.03875" y="199.486053" style="stroke: #000000; stroke-width: 0.8"/>
      </g>
     </g>
     <g id="text_30">
      <!-- 300 -->
      <g transform="translate(374.95125 203.285272) scale(0.1 -0.1)">
       <use xlink:href="#DejaVuSans-33"/>
       <use xlink:href="#DejaVuSans-30" x="63.623047"/>
       <use xlink:href="#DejaVuSans-30" x="127.246094"/>
      </g>
     </g>
    </g>
    <g id="ytick_12">
     <g id="line2d_56">
      <path d="M 401.03875 164.412168 
L 705.78875 164.412168 
" clip-path="url(#p3e86a3c942)" style="fill: none; stroke: #b0b0b0; stroke-opacity: 0.3; stroke-width: 0.8; stroke-linecap: square"/>
     </g>
     <g id="line2d_57">
      <g>
       <use xlink:href="#me1ac4a3f6e" x="401.03875" y="164.412168" style="stroke: #000000; stroke-width: 0.8"/>
      </g>
     </g>
     <g id="text_31">
      <!-- 400 -->
      <g transform="translate(374.95125 168.211387) scale(0.1 -0.1)">
       <use xlink:href="#DejaVuSans-34"/>
       <use xlink:href="#DejaVuSans-30" x="63.623047"/>
       <use xlink:href="#DejaVuSans-30" x="127.246094"/>
      </g>
     </g>
    </g>
    <g id="ytick_13">
     <g id="line2d_58">
      <path d="M 401.03875 129.338282 
L 705.78875 129.338282 
" clip-path="url(#p3e86a3c942)" style="fill: none; stroke: #b0b0b0; stroke-opacity: 0.3; stroke-width: 0.8; stroke-linecap: square"/>
     </g>
     <g id="line2d_59">
      <g>
       <use xlink:href="#me1ac4a3f6e" x="401.03875" y="129.338282" style="stroke: #000000; stroke-width: 0.8"/>
      </g>
     </g>
     <g id="text_32">
      <!-- 500 -->
      <g transform="translate(374.95125 133.137501) scale(0.1 -0.1)">
       <use xlink:href="#DejaVuSans-35"/>
       <use xlink:href="#DejaVuSans-30" x="63.623047"/>
       <use xlink:href="#DejaVuSans-30" x="127.246094"/>
      </g>
     </g>
    </g>
    <g id="ytick_14">
     <g id="line2d_60">
      <path d="M 401.03875 94.264396 
L 705.78875 94.264396 
" clip-path="url(#p3e86a3c942)" style="fill: none; stroke: #b0b0b0; stroke-opacity: 0.3; stroke-width: 0.8; stroke-linecap: square"/>
     </g>
     <g id="line2d_61">
      <g>
       <use xlink:href="#me1ac4a3f6e" x="401.03875" y="94.264396" style="stroke: #000000; stroke-width: 0.8"/>
      </g>
     </g>
     <g id="text_33">
      <!-- 600 -->
      <g transform="translate(374.95125 98.063615) scale(0.1 -0.1)">
       <use xlink:href="#DejaVuSans-36"/>
       <use xlink:href="#DejaVuSans-30" x="63.623047"/>
       <use xlink:href="#DejaVuSans-30" x="127.246094"/>
      </g>
     </g>
    </g>
    <g id="ytick_15">
     <g id="line2d_62">
      <path d="M 401.03875 59.190511 
L 705.78875 59.190511 
" clip-path="url(#p3e86a3c942)" style="fill: none; stroke: #b0b0b0; stroke-opacity: 0.3; stroke-width: 0.8; stroke-linecap: square"/>
     </g>
     <g id="line2d_63">
      <g>
       <use xlink:href="#me1ac4a3f6e" x="401.03875" y="59.190511" style="stroke: #000000; stroke-width: 0.8"/>
      </g>
     </g>
     <g id="text_34">
      <!-- 700 -->
      <g transform="translate(374.95125 62.989729) scale(0.1 -0.1)">
       <defs>
        <path id="DejaVuSans-37" d="M 525 4666 
L 3525 4666 
L 3525 4397 
L 1831 0 
L 1172 0 
L 2766 4134 
L 525 4134 
L 525 4666 
z
" transform="scale(0.015625)"/>
       </defs>
       <use xlink:href="#DejaVuSans-37"/>
       <use xlink:href="#DejaVuSans-30" x="63.623047"/>
       <use xlink:href="#DejaVuSans-30" x="127.246094"/>
      </g>
     </g>
    </g>
    <g id="text_35">
     <!-- Peak RSS (MB) -->
     <g transform="translate(368.455625 219.630868) rotate(-90) scale(0.12 -0.12)">
      <defs>
       <path id="DejaVuSans-61" d="M 2194 1759 
Q 1497 1759 1228 1600 
Q 959 1441 959 1056 
Q 959 750 1161 570 
Q 1363 391 1709 391 
Q 2188 391 2477 730 
Q 2766 1069 2766 1631 
L 2766 1759 
L 2194 1759 
z
M 3341 1997 
L 3341 0 
L 2766 0 
L 2766 531 
Q 2569 213 2275 61 
Q 1981 -91 1556 -91 
Q 1019 -91 701 211 
Q 384 513 384 1019 
Q 384 1609 779 1909 
Q 1175 2209 1959 2209 
L 2766 2209 
L 2766 2266 
Q 2766 2663 2505 2880 
Q 2244 3097 1772 3097 
Q 1472 3097 1187 3025 
Q 903 2953 641 2809 
L 641 3341 
Q 956 3463 1253 3523 
Q 1550 3584 1831 3584 
Q 2591 3584 2966 3190 
Q 3341 2797 3341 1997 
z
" transform="scale(0.015625)"/>
       <path id="DejaVuSans-52" d="M 2841 2188 
Q 3044 2119 3236 1894 
Q 3428 1669 3622 1275 
L 4263 0 
L 3584 0 
L 2988 1197 
Q 2756 1666 2539 1819 
Q 2322 1972 1947 1972 
L 1259 1972 
L 1259 0 
L 628 0 
L 628 4666 
L 2053 4666 
Q 2853 4666 3247 4331 
Q 3641 3997 3641 3322 
Q 3641 2881 3436 2590 
Q 3231 2300 2841 2188 
z
M 1259 4147 
L 1259 2491 
L 2053 2491 
Q 2509 2491 2742 2702 
Q 2975 2913 2975 3322 
Q 2975 3731 2742 3939 
Q 2509 4147 2053 4147 
L 1259 4147 
z
" transform="scale(0.015625)"/>
       <path id="DejaVuSans-4d" d="M 628 4666 
L 1569 4666 
L 2759 1491 
L 3956 4666 
L 4897 4666 
L 4897 0 
L 4281 0 
L 4281 4097 
L 3078 897 
L 2444 897 
L 1241 4097 
L 1241 0 
L 628 0 
L 628 4666 
z
" transform="scale(0.015625)"/>
       <path id="DejaVuSans-42" d="M 1259 2228 
L 1259 519 
L 2272 519 
Q 2781 519 3026 730 
Q 3272 941 3272 1375 
Q 3272 1813 3026 2020 
Q 2781 2228 2272 2228 
L 1259 2228 
z
M 1259 4147 
L 1259 2741 
L 2194 2741 
Q 2656 2741 2882 2914 
Q 3109 3088 3109 3444 
Q 3109 3797 2882 3972 
Q 2656 4147 2194 4147 
L 1259 4147 
z
M 628 4666 
L 2241 4666 
Q 2963 4666 3353 4366 
Q 3744 4066 3744 3513 
Q 3744 3084 3544 2831 
Q 3344 2578 2956 2516 
Q 3422 2416 3680 2098 
Q 3938 1781 3938 1306 
Q 3938 681 3513 340 
Q 3088 0 2303 0 
L 628 0 
L 628 4666 
z
" transform="scale(0.015625)"/>
      </defs>
      <use xlink:href="#DejaVuSans-50"/>
      <use xlink:href="#DejaVuSans-65" x="56.677734"/>
      <use xlink:href="#DejaVuSans-61" x="118.201172"/>
      <use xlink:href="#DejaVuSans-6b" x="179.480469"/>
      <use xlink:href="#DejaVuSans-20" x="237.390625"/>
      <use xlink:href="#DejaVuSans-52" x="269.177734"/>
      <use xlink:href="#DejaVuSans-53" x="338.660156"/>
      <use xlink:href="#DejaVuSans-53" x="402.136719"/>
      <use xlink:href="#DejaVuSans-20" x="465.613281"/>
      <use xlink:href="#DejaVuSans-28" x="497.400391"/>
      <use xlink:href="#DejaVuSans-4d" x="536.414062"/>
      <use xlink:href="#DejaVuSans-42" x="622.693359"/>
      <use xlink:href="#DejaVuSans-29" x="691.296875"/>
     </g>
    </g>
   </g>
   <g id="line2d_64">
    <path d="M 475.841023 267.880131 
L 545.102386 249.992449 
L 683.625114 228.597379 
" clip-path="url(#p3e86a3c942)" style="fill: none; stroke-dasharray: 5.55,2.4; stroke-dashoffset: 0; stroke: #2196f3; stroke-opacity: 0.5; stroke-width: 1.5"/>
   </g>
   <g id="line2d_65">
    <path d="M 475.841023 230.000334 
L 545.102386 53.929428 
" clip-path="url(#p3e86a3c942)" style="fill: none; stroke-dasharray: 5.55,2.4; stroke-dashoffset: 0; stroke: #ff5722; stroke-opacity: 0.5; stroke-width: 1.5"/>
   </g>
   <g id="patch_10">
    <path d="M 401.03875 309.881109 
L 401.03875 41.741253 
" style="fill: none; stroke: #000000; stroke-width: 0.8; stroke-linejoin: miter; stroke-linecap: square"/>
   </g>
   <g id="patch_11">
    <path d="M 705.78875 309.881109 
L 705.78875 41.741253 
" style="fill: none; stroke: #000000; stroke-width: 0.8; stroke-linejoin: miter; stroke-linecap: square"/>
   </g>
   <g id="patch_12">
    <path d="M 401.03875 309.881109 
L 705.78875 309.881109 
" style="fill: none; stroke: #000000; stroke-width: 0.8; stroke-linejoin: miter; stroke-linecap: square"/>
   </g>
   <g id="patch_13">
    <path d="M 401.03875 41.741253 
L 705.78875 41.741253 
" style="fill: none; stroke: #000000; stroke-width: 0.8; stroke-linejoin: miter; stroke-linecap: square"/>
   </g>
   <g id="line2d_66">
    <path d="M 409.350114 291.028895 
L 413.505795 288.924462 
L 420.431932 281.558946 
L 434.284205 278.051557 
L 448.136477 274.19343 
L 461.98875 270.686041 
L 475.841023 267.880131 
" clip-path="url(#p3e86a3c942)" style="fill: none; stroke: #2196f3; stroke-width: 2.5; stroke-linecap: square"/>
    <g clip-path="url(#p3e86a3c942)">
     <use xlink:href="#m7dd38b63df" x="409.350114" y="291.028895" style="fill: #2196f3; stroke: #2196f3"/>
     <use xlink:href="#m7dd38b63df" x="413.505795" y="288.924462" style="fill: #2196f3; stroke: #2196f3"/>
     <use xlink:href="#m7dd38b63df" x="420.431932" y="281.558946" style="fill: #2196f3; stroke: #2196f3"/>
     <use xlink:href="#m7dd38b63df" x="434.284205" y="278.051557" style="fill: #2196f3; stroke: #2196f3"/>
     <use xlink:href="#m7dd38b63df" x="448.136477" y="274.19343" style="fill: #2196f3; stroke: #2196f3"/>
     <use xlink:href="#m7dd38b63df" x="461.98875" y="270.686041" style="fill: #2196f3; stroke: #2196f3"/>
     <use xlink:href="#m7dd38b63df" x="475.841023" y="267.880131" style="fill: #2196f3; stroke: #2196f3"/>
    </g>
   </g>
   <g id="line2d_67">
    <path d="M 409.350114 297.692933 
L 413.505795 297.342195 
L 420.431932 294.185545 
L 434.284205 285.066335 
L 448.136477 271.03678 
L 461.98875 252.096882 
L 475.841023 230.000334 
" clip-path="url(#p3e86a3c942)" style="fill: none; stroke: #ff5722; stroke-width: 2.5; stroke-linecap: square"/>
    <g clip-path="url(#p3e86a3c942)">
     <use xlink:href="#m619e4a897b" x="409.350114" y="297.692933" style="fill: #ff5722; stroke: #ff5722; stroke-linejoin: miter"/>
     <use xlink:href="#m619e4a897b" x="413.505795" y="297.342195" style="fill: #ff5722; stroke: #ff5722; stroke-linejoin: miter"/>
     <use xlink:href="#m619e4a897b" x="420.431932" y="294.185545" style="fill: #ff5722; stroke: #ff5722; stroke-linejoin: miter"/>
     <use xlink:href="#m619e4a897b" x="434.284205" y="285.066335" style="fill: #ff5722; stroke: #ff5722; stroke-linejoin: miter"/>
     <use xlink:href="#m619e4a897b" x="448.136477" y="271.03678" style="fill: #ff5722; stroke: #ff5722; stroke-linejoin: miter"/>
     <use xlink:href="#m619e4a897b" x="461.98875" y="252.096882" style="fill: #ff5722; stroke: #ff5722; stroke-linejoin: miter"/>
     <use xlink:href="#m619e4a897b" x="475.841023" y="230.000334" style="fill: #ff5722; stroke: #ff5722; stroke-linejoin: miter"/>
    </g>
   </g>
   <g id="line2d_68">
    <g clip-path="url(#p3e86a3c942)">
     <use xlink:href="#m7dd38b63df" x="545.102386" y="249.992449" style="fill: #2196f3; stroke: #2196f3"/>
    </g>
   </g>
   <g id="line2d_69">
    <g clip-path="url(#p3e86a3c942)">
     <use xlink:href="#m619e4a897b" x="545.102386" y="53.929428" style="fill: #ff5722; stroke: #ff5722; stroke-linejoin: miter"/>
    </g>
   </g>
   <g id="line2d_70">
    <g clip-path="url(#p3e86a3c942)">
     <use xlink:href="#m7dd38b63df" x="683.625114" y="228.597379" style="fill: #2196f3; stroke: #2196f3"/>
    </g>
   </g>
   <g id="patch_14">
    <path d="M 626.782961 169.722757 
Q 654.508429 198.439587 681.06905 225.94992 
" style="fill: none; stroke: #2196f3; stroke-width: 1.5; stroke-linecap: round"/>
    <path d="M 679.863511 222.10978 
L 681.06905 225.94992 
L 677.273615 224.610268 
" style="fill: none; stroke: #2196f3; stroke-width: 1.5; stroke-linecap: round"/>
   </g>
   <g id="text_36">
    <!-- O(L) memory -->
    <g style="fill: #2196f3" transform="translate(581.316172 154.263824) scale(0.09 -0.09)">
     <defs>
      <path id="DejaVuSans-Bold-4f" d="M 2719 3878 
Q 2169 3878 1866 3472 
Q 1563 3066 1563 2328 
Q 1563 1594 1866 1187 
Q 2169 781 2719 781 
Q 3272 781 3575 1187 
Q 3878 1594 3878 2328 
Q 3878 3066 3575 3472 
Q 3272 3878 2719 3878 
z
M 2719 4750 
Q 3844 4750 4481 4106 
Q 5119 3463 5119 2328 
Q 5119 1197 4481 553 
Q 3844 -91 2719 -91 
Q 1597 -91 958 553 
Q 319 1197 319 2328 
Q 319 3463 958 4106 
Q 1597 4750 2719 4750 
z
" transform="scale(0.015625)"/>
      <path id="DejaVuSans-Bold-28" d="M 2413 -844 
L 1484 -844 
Q 1006 -72 778 623 
Q 550 1319 550 2003 
Q 550 2688 779 3389 
Q 1009 4091 1484 4856 
L 2413 4856 
Q 2013 4116 1813 3408 
Q 1613 2700 1613 2009 
Q 1613 1319 1811 609 
Q 2009 -100 2413 -844 
z
" transform="scale(0.015625)"/>
      <path id="DejaVuSans-Bold-4c" d="M 588 4666 
L 1791 4666 
L 1791 909 
L 3903 909 
L 3903 0 
L 588 0 
L 588 4666 
z
" transform="scale(0.015625)"/>
      <path id="DejaVuSans-Bold-29" d="M 513 -844 
Q 913 -100 1113 609 
Q 1313 1319 1313 2009 
Q 1313 2700 1113 3408 
Q 913 4116 513 4856 
L 1441 4856 
Q 1916 4091 2145 3389 
Q 2375 2688 2375 2003 
Q 2375 1319 2147 623 
Q 1919 -72 1441 -844 
L 513 -844 
z
" transform="scale(0.015625)"/>
      <path id="DejaVuSans-Bold-6f" d="M 2203 2784 
Q 1831 2784 1636 2517 
Q 1441 2250 1441 1747 
Q 1441 1244 1636 976 
Q 1831 709 2203 709 
Q 2569 709 2762 976 
Q 2956 1244 2956 1747 
Q 2956 2250 2762 2517 
Q 2569 2784 2203 2784 
z
M 2203 3584 
Q 3106 3584 3614 3096 
Q 4122 2609 4122 1747 
Q 4122 884 3614 396 
Q 3106 -91 2203 -91 
Q 1297 -91 786 396 
Q 275 884 275 1747 
Q 275 2609 786 3096 
Q 1297 3584 2203 3584 
z
" transform="scale(0.015625)"/>
      <path id="DejaVuSans-Bold-72" d="M 3138 2547 
Q 2991 2616 2845 2648 
Q 2700 2681 2553 2681 
Q 2122 2681 1889 2404 
Q 1656 2128 1656 1613 
L 1656 0 
L 538 0 
L 538 3500 
L 1656 3500 
L 1656 2925 
Q 1872 3269 2151 3426 
Q 2431 3584 2822 3584 
Q 2878 3584 2943 3579 
Q 3009 3575 3134 3559 
L 3138 2547 
z
" transform="scale(0.015625)"/>
      <path id="DejaVuSans-Bold-79" d="M 78 3500 
L 1197 3500 
L 2138 1125 
L 2938 3500 
L 4056 3500 
L 2584 -331 
Q 2363 -916 2067 -1148 
Q 1772 -1381 1288 -1381 
L 641 -1381 
L 641 -647 
L 991 -647 
Q 1275 -647 1404 -556 
Q 1534 -466 1606 -231 
L 1638 -134 
L 78 3500 
z
" transform="scale(0.015625)"/>
     </defs>
     <use xlink:href="#DejaVuSans-Bold-4f"/>
     <use xlink:href="#DejaVuSans-Bold-28" x="85.009766"/>
     <use xlink:href="#DejaVuSans-Bold-4c" x="130.712891"/>
     <use xlink:href="#DejaVuSans-Bold-29" x="194.433594"/>
     <use xlink:href="#DejaVuSans-Bold-20" x="240.136719"/>
     <use xlink:href="#DejaVuSans-Bold-6d" x="274.951172"/>
     <use xlink:href="#DejaVuSans-Bold-65" x="379.150391"/>
     <use xlink:href="#DejaVuSans-Bold-6d" x="446.972656"/>
     <use xlink:href="#DejaVuSans-Bold-6f" x="551.171875"/>
     <use xlink:href="#DejaVuSans-Bold-72" x="619.873047"/>
     <use xlink:href="#DejaVuSans-Bold-79" x="669.189453"/>
    </g>
    <!-- 217 MB -->
    <g style="fill: #2196f3" transform="translate(595.496094 164.412168) scale(0.09 -0.09)">
     <defs>
      <path id="DejaVuSans-Bold-32" d="M 1844 884 
L 3897 884 
L 3897 0 
L 506 0 
L 506 884 
L 2209 2388 
Q 2438 2594 2547 2791 
Q 2656 2988 2656 3200 
Q 2656 3528 2436 3728 
Q 2216 3928 1850 3928 
Q 1569 3928 1234 3808 
Q 900 3688 519 3450 
L 519 4475 
Q 925 4609 1322 4679 
Q 1719 4750 2100 4750 
Q 2938 4750 3402 4381 
Q 3866 4013 3866 3353 
Q 3866 2972 3669 2642 
Q 3472 2313 2841 1759 
L 1844 884 
z
" transform="scale(0.015625)"/>
      <path id="DejaVuSans-Bold-37" d="M 428 4666 
L 3944 4666 
L 3944 3988 
L 2125 0 
L 953 0 
L 2675 3781 
L 428 3781 
L 428 4666 
z
" transform="scale(0.015625)"/>
      <path id="DejaVuSans-Bold-4d" d="M 588 4666 
L 2119 4666 
L 3181 2169 
L 4250 4666 
L 5778 4666 
L 5778 0 
L 4641 0 
L 4641 3413 
L 3566 897 
L 2803 897 
L 1728 3413 
L 1728 0 
L 588 0 
L 588 4666 
z
" transform="scale(0.015625)"/>
      <path id="DejaVuSans-Bold-42" d="M 2456 2859 
Q 2741 2859 2887 2984 
Q 3034 3109 3034 3353 
Q 3034 3594 2887 3720 
Q 2741 3847 2456 3847 
L 1791 3847 
L 1791 2859 
L 2456 2859 
z
M 2497 819 
Q 2859 819 3042 972 
Q 3225 1125 3225 1434 
Q 3225 1738 3044 1889 
Q 2863 2041 2497 2041 
L 1791 2041 
L 1791 819 
L 2497 819 
z
M 3616 2497 
Q 4003 2384 4215 2081 
Q 4428 1778 4428 1338 
Q 4428 663 3972 331 
Q 3516 0 2584 0 
L 588 0 
L 588 4666 
L 2394 4666 
Q 3366 4666 3802 4372 
Q 4238 4078 4238 3431 
Q 4238 3091 4078 2852 
Q 3919 2613 3616 2497 
z
" transform="scale(0.015625)"/>
     </defs>
     <use xlink:href="#DejaVuSans-Bold-32"/>
     <use xlink:href="#DejaVuSans-Bold-31" x="69.580078"/>
     <use xlink:href="#DejaVuSans-Bold-37" x="139.160156"/>
     <use xlink:href="#DejaVuSans-Bold-20" x="208.740234"/>
     <use xlink:href="#DejaVuSans-Bold-4d" x="243.554688"/>
     <use xlink:href="#DejaVuSans-Bold-42" x="343.066406"/>
    </g>
   </g>
   <g id="patch_15">
    <path d="M 572.483699 29.329654 
Q 559.536737 40.961395 547.8373 51.472342 
" style="fill: none; stroke: #ff5722; stroke-width: 1.5; stroke-linecap: round"/>
    <path d="M 551.718232 50.405399 
L 547.8373 51.472342 
L 549.312305 47.727431 
" style="fill: none; stroke: #ff5722; stroke-width: 1.5; stroke-linecap: round"/>
   </g>
   <g id="text_37">
    <!-- O(N×L) -->
    <g style="fill: #ff5722" transform="translate(568.31608 14.038594) scale(0.09 -0.09)">
     <defs>
      <path id="DejaVuSans-Bold-4e" d="M 588 4666 
L 1931 4666 
L 3628 1466 
L 3628 4666 
L 4769 4666 
L 4769 0 
L 3425 0 
L 1728 3200 
L 1728 0 
L 588 0 
L 588 4666 
z
" transform="scale(0.015625)"/>
      <path id="DejaVuSans-Bold-d7" d="M 4563 3359 
L 3206 2003 
L 4563 653 
L 4038 128 
L 2681 1478 
L 1325 128 
L 800 653 
L 2156 2003 
L 800 3359 
L 1325 3884 
L 2681 2528 
L 4038 3884 
L 4563 3359 
z
" transform="scale(0.015625)"/>
     </defs>
     <use xlink:href="#DejaVuSans-Bold-4f"/>
     <use xlink:href="#DejaVuSans-Bold-28" x="85.009766"/>
     <use xlink:href="#DejaVuSans-Bold-4e" x="130.712891"/>
     <use xlink:href="#DejaVuSans-Bold-d7" x="214.404297"/>
     <use xlink:href="#DejaVuSans-Bold-4c" x="298.193359"/>
     <use xlink:href="#DejaVuSans-Bold-29" x="361.914062"/>
    </g>
    <!-- 715 MB -->
    <g style="fill: #ff5722" transform="translate(567.791548 24.116625) scale(0.09 -0.09)">
     <defs>
      <path id="DejaVuSans-Bold-35" d="M 678 4666 
L 3669 4666 
L 3669 3781 
L 1638 3781 
L 1638 3059 
Q 1775 3097 1914 3117 
Q 2053 3138 2203 3138 
Q 3056 3138 3531 2711 
Q 4006 2284 4006 1522 
Q 4006 766 3489 337 
Q 2972 -91 2053 -91 
Q 1656 -91 1267 -14 
Q 878 63 494 219 
L 494 1166 
Q 875 947 1217 837 
Q 1559 728 1863 728 
Q 2300 728 2551 942 
Q 2803 1156 2803 1522 
Q 2803 1891 2551 2103 
Q 2300 2316 1863 2316 
Q 1603 2316 1309 2248 
Q 1016 2181 678 2041 
L 678 4666 
z
" transform="scale(0.015625)"/>
     </defs>
     <use xlink:href="#DejaVuSans-Bold-37"/>
     <use xlink:href="#DejaVuSans-Bold-31" x="69.580078"/>
     <use xlink:href="#DejaVuSans-Bold-35" x="139.160156"/>
     <use xlink:href="#DejaVuSans-Bold-20" x="208.740234"/>
     <use xlink:href="#DejaVuSans-Bold-4d" x="243.554688"/>
     <use xlink:href="#DejaVuSans-Bold-42" x="343.066406"/>
    </g>
   </g>
   <g id="text_38">
    <!-- Memory usage -->
    <g transform="translate(495.512812 35.741253) scale(0.14 -0.14)">
     <defs>
      <path id="DejaVuSans-Bold-61" d="M 2106 1575 
Q 1756 1575 1579 1456 
Q 1403 1338 1403 1106 
Q 1403 894 1545 773 
Q 1688 653 1941 653 
Q 2256 653 2472 879 
Q 2688 1106 2688 1447 
L 2688 1575 
L 2106 1575 
z
M 3816 1997 
L 3816 0 
L 2688 0 
L 2688 519 
Q 2463 200 2181 54 
Q 1900 -91 1497 -91 
Q 953 -91 614 226 
Q 275 544 275 1050 
Q 275 1666 698 1953 
Q 1122 2241 2028 2241 
L 2688 2241 
L 2688 2328 
Q 2688 2594 2478 2717 
Q 2269 2841 1825 2841 
Q 1466 2841 1156 2769 
Q 847 2697 581 2553 
L 581 3406 
Q 941 3494 1303 3539 
Q 1666 3584 2028 3584 
Q 2975 3584 3395 3211 
Q 3816 2838 3816 1997 
z
" transform="scale(0.015625)"/>
      <path id="DejaVuSans-Bold-67" d="M 2919 594 
Q 2688 288 2409 144 
Q 2131 0 1766 0 
Q 1125 0 706 504 
Q 288 1009 288 1791 
Q 288 2575 706 3076 
Q 1125 3578 1766 3578 
Q 2131 3578 2409 3434 
Q 2688 3291 2919 2981 
L 2919 3500 
L 4044 3500 
L 4044 353 
Q 4044 -491 3511 -936 
Q 2978 -1381 1966 -1381 
Q 1638 -1381 1331 -1331 
Q 1025 -1281 716 -1178 
L 716 -306 
Q 1009 -475 1290 -558 
Q 1572 -641 1856 -641 
Q 2406 -641 2662 -400 
Q 2919 -159 2919 353 
L 2919 594 
z
M 2181 2772 
Q 1834 2772 1640 2515 
Q 1447 2259 1447 1791 
Q 1447 1309 1634 1061 
Q 1822 813 2181 813 
Q 2531 813 2725 1069 
Q 2919 1325 2919 1791 
Q 2919 2259 2725 2515 
Q 2531 2772 2181 2772 
z
" transform="scale(0.015625)"/>
     </defs>
     <use xlink:href="#DejaVuSans-Bold-4d"/>
     <use xlink:href="#DejaVuSans-Bold-65" x="99.511719"/>
     <use xlink:href="#DejaVuSans-Bold-6d" x="167.333984"/>
     <use xlink:href="#DejaVuSans-Bold-6f" x="271.533203"/>
     <use xlink:href="#DejaVuSans-Bold-72" x="340.234375"/>
     <use xlink:href="#DejaVuSans-Bold-79" x="389.550781"/>
     <use xlink:href="#DejaVuSans-Bold-20" x="454.736328"/>
     <use xlink:href="#DejaVuSans-Bold-75" x="489.550781"/>
     <use xlink:href="#DejaVuSans-Bold-73" x="560.742188"/>
     <use xlink:href="#DejaVuSans-Bold-61" x="620.263672"/>
     <use xlink:href="#DejaVuSans-Bold-67" x="687.744141"/>
     <use xlink:href="#DejaVuSans-Bold-65" x="759.326172"/>
    </g>
   </g>
   <g id="legend_2">
    <g id="patch_16">
     <path d="M 613.637969 82.833128 
L 698.08875 82.833128 
Q 700.28875 82.833128 700.28875 80.633128 
L 700.28875 49.441253 
Q 700.28875 47.241253 698.08875 47.241253 
L 613.637969 47.241253 
Q 611.437969 47.241253 611.437969 49.441253 
L 611.437969 80.633128 
Q 611.437969 82.833128 613.637969 82.833128 
z
" style="fill: #ffffff; opacity: 0.9; stroke: #cccccc; stroke-linejoin: miter"/>
    </g>
    <g id="line2d_71">
     <path d="M 615.837969 56.149534 
L 626.837969 56.149534 
L 637.837969 56.149534 
" style="fill: none; stroke: #2196f3; stroke-width: 2.5; stroke-linecap: square"/>
     <g>
      <use xlink:href="#m7dd38b63df" x="626.837969" y="56.149534" style="fill: #2196f3; stroke: #2196f3"/>
     </g>
    </g>
    <g id="text_39">
     <!-- SNPick -->
     <g transform="translate(646.637969 59.999534) scale(0.11 -0.11)">
      <use xlink:href="#DejaVuSans-53"/>
      <use xlink:href="#DejaVuSans-4e" x="63.476562"/>
      <use xlink:href="#DejaVuSans-50" x="138.28125"/>
      <use xlink:href="#DejaVuSans-69" x="196.333984"/>
      <use xlink:href="#DejaVuSans-63" x="224.117188"/>
      <use xlink:href="#DejaVuSans-6b" x="279.097656"/>
     </g>
    </g>
    <g id="line2d_72">
     <path d="M 615.837969 72.295471 
L 626.837969 72.295471 
L 637.837969 72.295471 
" style="fill: none; stroke: #ff5722; stroke-width: 2.5; stroke-linecap: square"/>
     <g>
      <use xlink:href="#m619e4a897b" x="626.837969" y="72.295471" style="fill: #ff5722; stroke: #ff5722; stroke-linejoin: miter"/>
     </g>
    </g>
    <g id="text_40">
     <!-- snp-sites -->
     <g transform="translate(646.637969 76.145471) scale(0.11 -0.11)">
      <use xlink:href="#DejaVuSans-73"/>
      <use xlink:href="#DejaVuSans-6e" x="52.099609"/>
      <use xlink:href="#DejaVuSans-70" x="115.478516"/>
      <use xlink:href="#DejaVuSans-2d" x="178.955078"/>
      <use xlink:href="#DejaVuSans-73" x="215.039062"/>
      <use xlink:href="#DejaVuSans-69" x="267.138672"/>
      <use xlink:href="#DejaVuSans-74" x="294.921875"/>
      <use xlink:href="#DejaVuSans-65" x="334.130859"/>
      <use xlink:href="#DejaVuSans-73" x="395.654297"/>
     </g>
    </g>
   </g>
  </g>
  <g id="axes_3">
   <g id="patch_17">
    <path d="M 759.53875 309.881109 
L 1064.28875 309.881109 
L 1064.28875 41.741253 
L 759.53875 41.741253 
z
" style="fill: #ffffff"/>
   </g>
   <g id="matplotlib.axis_5">
    <g id="xtick_13">
     <g id="line2d_73">
      <g>
       <use xlink:href="#md2b81e8ccd" x="787.598482" y="309.881109" style="stroke: #000000; stroke-width: 0.8"/>
      </g>
     </g>
     <g id="text_41">
      <!-- 10 -->
      <g transform="translate(781.235982 324.479546) scale(0.1 -0.1)">
       <use xlink:href="#DejaVuSans-31"/>
       <use xlink:href="#DejaVuSans-30" x="63.623047"/>
      </g>
     </g>
    </g>
    <g id="xtick_14">
     <g id="line2d_74">
      <g>
       <use xlink:href="#md2b81e8ccd" x="823.11713" y="309.881109" style="stroke: #000000; stroke-width: 0.8"/>
      </g>
     </g>
     <g id="text_42">
      <!-- 25 -->
      <g transform="translate(816.75463 324.479546) scale(0.1 -0.1)">
       <use xlink:href="#DejaVuSans-32"/>
       <use xlink:href="#DejaVuSans-35" x="63.623047"/>
      </g>
     </g>
    </g>
    <g id="xtick_15">
     <g id="line2d_75">
      <g>
       <use xlink:href="#md2b81e8ccd" x="858.635778" y="309.881109" style="stroke: #000000; stroke-width: 0.8"/>
      </g>
     </g>
     <g id="text_43">
      <!-- 50 -->
      <g transform="translate(852.273278 324.479546) scale(0.1 -0.1)">
       <use xlink:href="#DejaVuSans-35"/>
       <use xlink:href="#DejaVuSans-30" x="63.623047"/>
      </g>
     </g>
    </g>
    <g id="xtick_16">
     <g id="line2d_76">
      <g>
       <use xlink:href="#md2b81e8ccd" x="894.154426" y="309.881109" style="stroke: #000000; stroke-width: 0.8"/>
      </g>
     </g>
     <g id="text_44">
      <!-- 100 -->
      <g transform="translate(884.610676 324.479546) scale(0.1 -0.1)">
       <use xlink:href="#DejaVuSans-31"/>
       <use xlink:href="#DejaVuSans-30" x="63.623047"/>
       <use xlink:href="#DejaVuSans-30" x="127.246094"/>
      </g>
     </g>
    </g>
    <g id="xtick_17">
     <g id="line2d_77">
      <g>
       <use xlink:href="#md2b81e8ccd" x="929.673074" y="309.881109" style="stroke: #000000; stroke-width: 0.8"/>
      </g>
     </g>
     <g id="text_45">
      <!-- 150 -->
      <g transform="translate(920.129324 324.479546) scale(0.1 -0.1)">
       <use xlink:href="#DejaVuSans-31"/>
       <use xlink:href="#DejaVuSans-35" x="63.623047"/>
       <use xlink:href="#DejaVuSans-30" x="127.246094"/>
      </g>
     </g>
    </g>
    <g id="xtick_18">
     <g id="line2d_78">
      <g>
       <use xlink:href="#md2b81e8ccd" x="965.191722" y="309.881109" style="stroke: #000000; stroke-width: 0.8"/>
      </g>
     </g>
     <g id="text_46">
      <!-- 200 -->
      <g transform="translate(955.647972 324.479546) scale(0.1 -0.1)">
       <use xlink:href="#DejaVuSans-32"/>
       <use xlink:href="#DejaVuSans-30" x="63.623047"/>
       <use xlink:href="#DejaVuSans-30" x="127.246094"/>
      </g>
     </g>
    </g>
    <g id="xtick_19">
     <g id="line2d_79">
      <g>
       <use xlink:href="#md2b81e8ccd" x="1000.71037" y="309.881109" style="stroke: #000000; stroke-width: 0.8"/>
      </g>
     </g>
     <g id="text_47">
      <!-- 250 -->
      <g transform="translate(991.16662 324.479546) scale(0.1 -0.1)">
       <use xlink:href="#DejaVuSans-32"/>
       <use xlink:href="#DejaVuSans-35" x="63.623047"/>
       <use xlink:href="#DejaVuSans-30" x="127.246094"/>
      </g>
     </g>
    </g>
    <g id="xtick_20">
     <g id="line2d_80">
      <g>
       <use xlink:href="#md2b81e8ccd" x="1036.229018" y="309.881109" style="stroke: #000000; stroke-width: 0.8"/>
      </g>
     </g>
     <g id="text_48">
      <!-- 500 -->
      <g transform="translate(1026.685268 324.479546) scale(0.1 -0.1)">
       <use xlink:href="#DejaVuSans-35"/>
       <use xlink:href="#DejaVuSans-30" x="63.623047"/>
       <use xlink:href="#DejaVuSans-30" x="127.246094"/>
      </g>
     </g>
    </g>
    <g id="text_49">
     <!-- Number of sequences -->
     <g transform="translate(846.173437 339.677359) scale(0.12 -0.12)">
      <use xlink:href="#DejaVuSans-4e"/>
      <use xlink:href="#DejaVuSans-75" x="74.804688"/>
      <use xlink:href="#DejaVuSans-6d" x="138.183594"/>
      <use xlink:href="#DejaVuSans-62" x="235.595703"/>
      <use xlink:href="#DejaVuSans-65" x="299.072266"/>
      <use xlink:href="#DejaVuSans-72" x="360.595703"/>
      <use xlink:href="#DejaVuSans-20" x="401.708984"/>
      <use xlink:href="#DejaVuSans-6f" x="433.496094"/>
      <use xlink:href="#DejaVuSans-66" x="494.677734"/>
      <use xlink:href="#DejaVuSans-20" x="529.882812"/>
      <use xlink:href="#DejaVuSans-73" x="561.669922"/>
      <use xlink:href="#DejaVuSans-65" x="613.769531"/>
      <use xlink:href="#DejaVuSans-71" x="675.292969"/>
      <use xlink:href="#DejaVuSans-75" x="738.769531"/>
      <use xlink:href="#DejaVuSans-65" x="802.148438"/>
      <use xlink:href="#DejaVuSans-6e" x="863.671875"/>
      <use xlink:href="#DejaVuSans-63" x="927.050781"/>
      <use xlink:href="#DejaVuSans-65" x="982.03125"/>
      <use xlink:href="#DejaVuSans-73" x="1043.554688"/>
     </g>
    </g>
   </g>
   <g id="matplotlib.axis_6">
    <g id="ytick_16">
     <g id="line2d_81">
      <path d="M 759.53875 309.881109 
L 1064.28875 309.881109 
" clip-path="url(#p9bb4756bfd)" style="fill: none; stroke: #b0b0b0; stroke-opacity: 0.3; stroke-width: 0.8; stroke-linecap: square"/>
     </g>
     <g id="line2d_82">
      <g>
       <use xlink:href="#me1ac4a3f6e" x="759.53875" y="309.881109" style="stroke: #000000; stroke-width: 0.8"/>
      </g>
     </g>
     <g id="text_50">
      <!-- 0 -->
      <g transform="translate(746.17625 313.680327) scale(0.1 -0.1)">
       <use xlink:href="#DejaVuSans-30"/>
      </g>
     </g>
    </g>
    <g id="ytick_17">
     <g id="line2d_83">
      <path d="M 759.53875 280.013121 
L 1064.28875 280.013121 
" clip-path="url(#p9bb4756bfd)" style="fill: none; stroke: #b0b0b0; stroke-opacity: 0.3; stroke-width: 0.8; stroke-linecap: square"/>
     </g>
     <g id="line2d_84">
      <g>
       <use xlink:href="#me1ac4a3f6e" x="759.53875" y="280.013121" style="stroke: #000000; stroke-width: 0.8"/>
      </g>
     </g>
     <g id="text_51">
      <!-- 1 -->
      <g transform="translate(746.17625 283.81234) scale(0.1 -0.1)">
       <use xlink:href="#DejaVuSans-31"/>
      </g>
     </g>
    </g>
    <g id="ytick_18">
     <g id="line2d_85">
      <path d="M 759.53875 250.145134 
L 1064.28875 250.145134 
" clip-path="url(#p9bb4756bfd)" style="fill: none; stroke: #b0b0b0; stroke-opacity: 0.3; stroke-width: 0.8; stroke-linecap: square"/>
     </g>
     <g id="line2d_86">
      <g>
       <use xlink:href="#me1ac4a3f6e" x="759.53875" y="250.145134" style="stroke: #000000; stroke-width: 0.8"/>
      </g>
     </g>
     <g id="text_52">
      <!-- 2 -->
      <g transform="translate(746.17625 253.944353) scale(0.1 -0.1)">
       <use xlink:href="#DejaVuSans-32"/>
      </g>
     </g>
    </g>
    <g id="ytick_19">
     <g id="line2d_87">
      <path d="M 759.53875 220.277147 
L 1064.28875 220.277147 
" clip-path="url(#p9bb4756bfd)" style="fill: none; stroke: #b0b0b0; stroke-opacity: 0.3; stroke-width: 0.8; stroke-linecap: square"/>
     </g>
     <g id="line2d_88">
      <g>
       <use xlink:href="#me1ac4a3f6e" x="759.53875" y="220.277147" style="stroke: #000000; stroke-width: 0.8"/>
      </g>
     </g>
     <g id="text_53">
      <!-- 3 -->
      <g transform="translate(746.17625 224.076365) scale(0.1 -0.1)">
       <use xlink:href="#DejaVuSans-33"/>
      </g>
     </g>
    </g>
    <g id="ytick_20">
     <g id="line2d_89">
      <path d="M 759.53875 190.409159 
L 1064.28875 190.409159 
" clip-path="url(#p9bb4756bfd)" style="fill: none; stroke: #b0b0b0; stroke-opacity: 0.3; stroke-width: 0.8; stroke-linecap: square"/>
     </g>
     <g id="line2d_90">
      <g>
       <use xlink:href="#me1ac4a3f6e" x="759.53875" y="190.409159" style="stroke: #000000; stroke-width: 0.8"/>
      </g>
     </g>
     <g id="text_54">
      <!-- 4 -->
      <g transform="translate(746.17625 194.208378) scale(0.1 -0.1)">
       <use xlink:href="#DejaVuSans-34"/>
      </g>
     </g>
    </g>
    <g id="ytick_21">
     <g id="line2d_91">
      <path d="M 759.53875 160.541172 
L 1064.28875 160.541172 
" clip-path="url(#p9bb4756bfd)" style="fill: none; stroke: #b0b0b0; stroke-opacity: 0.3; stroke-width: 0.8; stroke-linecap: square"/>
     </g>
     <g id="line2d_92">
      <g>
       <use xlink:href="#me1ac4a3f6e" x="759.53875" y="160.541172" style="stroke: #000000; stroke-width: 0.8"/>
      </g>
     </g>
     <g id="text_55">
      <!-- 5 -->
      <g transform="translate(746.17625 164.340391) scale(0.1 -0.1)">
       <use xlink:href="#DejaVuSans-35"/>
      </g>
     </g>
    </g>
    <g id="ytick_22">
     <g id="line2d_93">
      <path d="M 759.53875 130.673185 
L 1064.28875 130.673185 
" clip-path="url(#p9bb4756bfd)" style="fill: none; stroke: #b0b0b0; stroke-opacity: 0.3; stroke-width: 0.8; stroke-linecap: square"/>
     </g>
     <g id="line2d_94">
      <g>
       <use xlink:href="#me1ac4a3f6e" x="759.53875" y="130.673185" style="stroke: #000000; stroke-width: 0.8"/>
      </g>
     </g>
     <g id="text_56">
      <!-- 6 -->
      <g transform="translate(746.17625 134.472404) scale(0.1 -0.1)">
       <use xlink:href="#DejaVuSans-36"/>
      </g>
     </g>
    </g>
    <g id="ytick_23">
     <g id="line2d_95">
      <path d="M 759.53875 100.805197 
L 1064.28875 100.805197 
" clip-path="url(#p9bb4756bfd)" style="fill: none; stroke: #b0b0b0; stroke-opacity: 0.3; stroke-width: 0.8; stroke-linecap: square"/>
     </g>
     <g id="line2d_96">
      <g>
       <use xlink:href="#me1ac4a3f6e" x="759.53875" y="100.805197" style="stroke: #000000; stroke-width: 0.8"/>
      </g>
     </g>
     <g id="text_57">
      <!-- 7 -->
      <g transform="translate(746.17625 104.604416) scale(0.1 -0.1)">
       <use xlink:href="#DejaVuSans-37"/>
      </g>
     </g>
    </g>
    <g id="ytick_24">
     <g id="line2d_97">
      <path d="M 759.53875 70.93721 
L 1064.28875 70.93721 
" clip-path="url(#p9bb4756bfd)" style="fill: none; stroke: #b0b0b0; stroke-opacity: 0.3; stroke-width: 0.8; stroke-linecap: square"/>
     </g>
     <g id="line2d_98">
      <g>
       <use xlink:href="#me1ac4a3f6e" x="759.53875" y="70.93721" style="stroke: #000000; stroke-width: 0.8"/>
      </g>
     </g>
     <g id="text_58">
      <!-- 8 -->
      <g transform="translate(746.17625 74.736429) scale(0.1 -0.1)">
       <use xlink:href="#DejaVuSans-38"/>
      </g>
     </g>
    </g>
    <g id="text_59">
     <!-- Speedup (×) -->
     <g transform="translate(739.680625 213.850243) rotate(-90) scale(0.12 -0.12)">
      <defs>
       <path id="DejaVuSans-d7" d="M 4488 3438 
L 3059 2003 
L 4488 575 
L 4116 197 
L 2681 1631 
L 1247 197 
L 878 575 
L 2303 2003 
L 878 3438 
L 1247 3816 
L 2681 2381 
L 4116 3816 
L 4488 3438 
z
" transform="scale(0.015625)"/>
      </defs>
      <use xlink:href="#DejaVuSans-53"/>
      <use xlink:href="#DejaVuSans-70" x="63.476562"/>
      <use xlink:href="#DejaVuSans-65" x="126.953125"/>
      <use xlink:href="#DejaVuSans-65" x="188.476562"/>
      <use xlink:href="#DejaVuSans-64" x="250"/>
      <use xlink:href="#DejaVuSans-75" x="313.476562"/>
      <use xlink:href="#DejaVuSans-70" x="376.855469"/>
      <use xlink:href="#DejaVuSans-20" x="440.332031"/>
      <use xlink:href="#DejaVuSans-28" x="472.119141"/>
      <use xlink:href="#DejaVuSans-d7" x="511.132812"/>
      <use xlink:href="#DejaVuSans-29" x="594.921875"/>
     </g>
    </g>
   </g>
   <g id="line2d_99">
    <path d="M 759.53875 280.013121 
L 1064.28875 280.013121 
" clip-path="url(#p9bb4756bfd)" style="fill: none; stroke-dasharray: 1.5,2.475; stroke-dashoffset: 0; stroke: #808080; stroke-opacity: 0.5; stroke-width: 1.5"/>
   </g>
   <g id="patch_18">
    <path d="M 759.53875 309.881109 
L 759.53875 41.741253 
" style="fill: none; stroke: #000000; stroke-width: 0.8; stroke-linejoin: miter; stroke-linecap: square"/>
   </g>
   <g id="patch_19">
    <path d="M 1064.28875 309.881109 
L 1064.28875 41.741253 
" style="fill: none; stroke: #000000; stroke-width: 0.8; stroke-linejoin: miter; stroke-linecap: square"/>
   </g>
   <g id="patch_20">
    <path d="M 759.53875 309.881109 
L 1064.28875 309.881109 
" style="fill: none; stroke: #000000; stroke-width: 0.8; stroke-linejoin: miter; stroke-linecap: square"/>
   </g>
   <g id="patch_21">
    <path d="M 759.53875 41.741253 
L 1064.28875 41.741253 
" style="fill: none; stroke: #000000; stroke-width: 0.8; stroke-linejoin: miter; stroke-linecap: square"/>
   </g>
   <g id="patch_22">
    <path d="M 773.391023 309.881109 
L 801.805941 309.881109 
L 801.805941 240.189138 
L 773.391023 240.189138 
z
" clip-path="url(#p9bb4756bfd)" style="fill: #4caf50; opacity: 0.85; stroke: #ffffff; stroke-width: 1.5; stroke-linejoin: miter"/>
   </g>
   <g id="patch_23">
    <path d="M 808.909671 309.881109 
L 837.324589 309.881109 
L 837.324589 218.410398 
L 808.909671 218.410398 
z
" clip-path="url(#p9bb4756bfd)" style="fill: #4caf50; opacity: 0.85; stroke: #ffffff; stroke-width: 1.5; stroke-linejoin: miter"/>
   </g>
   <g id="patch_24">
    <path d="M 844.428319 309.881109 
L 872.843237 309.881109 
L 872.843237 200.009584 
L 844.428319 200.009584 
z
" clip-path="url(#p9bb4756bfd)" style="fill: #4caf50; opacity: 0.85; stroke: #ffffff; stroke-width: 1.5; stroke-linejoin: miter"/>
   </g>
   <g id="patch_25">
    <path d="M 879.946967 309.881109 
L 908.361885 309.881109 
L 908.361885 174.922055 
L 879.946967 174.922055 
z
" clip-path="url(#p9bb4756bfd)" style="fill: #4caf50; opacity: 0.85; stroke: #ffffff; stroke-width: 1.5; stroke-linejoin: miter"/>
   </g>
   <g id="patch_26">
    <path d="M 915.465615 309.881109 
L 943.880533 309.881109 
L 943.880533 154.074907 
L 915.465615 154.074907 
z
" clip-path="url(#p9bb4756bfd)" style="fill: #4caf50; opacity: 0.85; stroke: #ffffff; stroke-width: 1.5; stroke-linejoin: miter"/>
   </g>
   <g id="patch_27">
    <path d="M 950.984263 309.881109 
L 979.399181 309.881109 
L 979.399181 145.607178 
L 950.984263 145.607178 
z
" clip-path="url(#p9bb4756bfd)" style="fill: #4caf50; opacity: 0.85; stroke: #ffffff; stroke-width: 1.5; stroke-linejoin: miter"/>
   </g>
   <g id="patch_28">
    <path d="M 986.502911 309.881109 
L 1014.917829 309.881109 
L 1014.917829 146.996387 
L 986.502911 146.996387 
z
" clip-path="url(#p9bb4756bfd)" style="fill: #4caf50; opacity: 0.85; stroke: #ffffff; stroke-width: 1.5; stroke-linejoin: miter"/>
   </g>
   <g id="patch_29">
    <path d="M 1022.021559 309.881109 
L 1050.436477 309.881109 
L 1050.436477 54.509817 
L 1022.021559 54.509817 
z
" clip-path="url(#p9bb4756bfd)" style="fill: #4caf50; opacity: 0.85; stroke: #ffffff; stroke-width: 1.5; stroke-linejoin: miter"/>
   </g>
   <g id="text_60">
    <!-- 2.3× -->
    <g style="fill: #333333" transform="translate(774.551607 235.70894) scale(0.1 -0.1)">
     <use xlink:href="#DejaVuSans-Bold-32"/>
     <use xlink:href="#DejaVuSans-Bold-2e" x="69.580078"/>
     <use xlink:href="#DejaVuSans-Bold-33" x="107.568359"/>
     <use xlink:href="#DejaVuSans-Bold-d7" x="177.148438"/>
    </g>
   </g>
   <g id="text_61">
    <!-- 3.1× -->
    <g style="fill: #333333" transform="translate(810.070255 213.930199) scale(0.1 -0.1)">
     <use xlink:href="#DejaVuSans-Bold-33"/>
     <use xlink:href="#DejaVuSans-Bold-2e" x="69.580078"/>
     <use xlink:href="#DejaVuSans-Bold-31" x="107.568359"/>
     <use xlink:href="#DejaVuSans-Bold-d7" x="177.148438"/>
    </g>
   </g>
   <g id="text_62">
    <!-- 3.7× -->
    <g style="fill: #333333" transform="translate(845.588903 195.529386) scale(0.1 -0.1)">
     <use xlink:href="#DejaVuSans-Bold-33"/>
     <use xlink:href="#DejaVuSans-Bold-2e" x="69.580078"/>
     <use xlink:href="#DejaVuSans-Bold-37" x="107.568359"/>
     <use xlink:href="#DejaVuSans-Bold-d7" x="177.148438"/>
    </g>
   </g>
   <g id="text_63">
    <!-- 4.5× -->
    <g style="fill: #333333" transform="translate(881.107551 170.441857) scale(0.1 -0.1)">
     <defs>
      <path id="DejaVuSans-Bold-34" d="M 2356 3675 
L 1038 1722 
L 2356 1722 
L 2356 3675 
z
M 2156 4666 
L 3494 4666 
L 3494 1722 
L 4159 1722 
L 4159 850 
L 3494 850 
L 3494 0 
L 2356 0 
L 2356 850 
L 288 850 
L 288 1881 
L 2156 4666 
z
" transform="scale(0.015625)"/>
     </defs>
     <use xlink:href="#DejaVuSans-Bold-34"/>
     <use xlink:href="#DejaVuSans-Bold-2e" x="69.580078"/>
     <use xlink:href="#DejaVuSans-Bold-35" x="107.568359"/>
     <use xlink:href="#DejaVuSans-Bold-d7" x="177.148438"/>
    </g>
   </g>
   <g id="text_64">
    <!-- 5.2× -->
    <g style="fill: #333333" transform="translate(916.626199 149.594709) scale(0.1 -0.1)">
     <use xlink:href="#DejaVuSans-Bold-35"/>
     <use xlink:href="#DejaVuSans-Bold-2e" x="69.580078"/>
     <use xlink:href="#DejaVuSans-Bold-32" x="107.568359"/>
     <use xlink:href="#DejaVuSans-Bold-d7" x="177.148438"/>
    </g>
   </g>
   <g id="text_65">
    <!-- 5.5× -->
    <g style="fill: #333333" transform="translate(952.144847 141.12698) scale(0.1 -0.1)">
     <use xlink:href="#DejaVuSans-Bold-35"/>
     <use xlink:href="#DejaVuSans-Bold-2e" x="69.580078"/>
     <use xlink:href="#DejaVuSans-Bold-35" x="107.568359"/>
     <use xlink:href="#DejaVuSans-Bold-d7" x="177.148438"/>
    </g>
   </g>
   <g id="text_66">
    <!-- 5.5× -->
    <g style="fill: #333333" transform="translate(987.663495 142.516189) scale(0.1 -0.1)">
     <use xlink:href="#DejaVuSans-Bold-35"/>
     <use xlink:href="#DejaVuSans-Bold-2e" x="69.580078"/>
     <use xlink:href="#DejaVuSans-Bold-35" x="107.568359"/>
     <use xlink:href="#DejaVuSans-Bold-d7" x="177.148438"/>
    </g>
   </g>
   <g id="text_67">
    <!-- 8.6× -->
    <g style="fill: #333333" transform="translate(1023.182143 50.029619) scale(0.1 -0.1)">
     <defs>
      <path id="DejaVuSans-Bold-38" d="M 2228 2088 
Q 1891 2088 1709 1903 
Q 1528 1719 1528 1375 
Q 1528 1031 1709 848 
Q 1891 666 2228 666 
Q 2563 666 2741 848 
Q 2919 1031 2919 1375 
Q 2919 1722 2741 1905 
Q 2563 2088 2228 2088 
z
M 1350 2484 
Q 925 2613 709 2878 
Q 494 3144 494 3541 
Q 494 4131 934 4440 
Q 1375 4750 2228 4750 
Q 3075 4750 3515 4442 
Q 3956 4134 3956 3541 
Q 3956 3144 3739 2878 
Q 3522 2613 3097 2484 
Q 3572 2353 3814 2058 
Q 4056 1763 4056 1313 
Q 4056 619 3595 264 
Q 3134 -91 2228 -91 
Q 1319 -91 855 264 
Q 391 619 391 1313 
Q 391 1763 633 2058 
Q 875 2353 1350 2484 
z
M 1631 3419 
Q 1631 3141 1786 2991 
Q 1941 2841 2228 2841 
Q 2509 2841 2662 2991 
Q 2816 3141 2816 3419 
Q 2816 3697 2662 3845 
Q 2509 3994 2228 3994 
Q 1941 3994 1786 3844 
Q 1631 3694 1631 3419 
z
" transform="scale(0.015625)"/>
      <path id="DejaVuSans-Bold-36" d="M 2316 2303 
Q 2000 2303 1842 2098 
Q 1684 1894 1684 1484 
Q 1684 1075 1842 870 
Q 2000 666 2316 666 
Q 2634 666 2792 870 
Q 2950 1075 2950 1484 
Q 2950 1894 2792 2098 
Q 2634 2303 2316 2303 
z
M 3803 4544 
L 3803 3681 
Q 3506 3822 3243 3889 
Q 2981 3956 2731 3956 
Q 2194 3956 1894 3657 
Q 1594 3359 1544 2772 
Q 1750 2925 1990 3001 
Q 2231 3078 2516 3078 
Q 3231 3078 3670 2659 
Q 4109 2241 4109 1563 
Q 4109 813 3618 361 
Q 3128 -91 2303 -91 
Q 1394 -91 895 523 
Q 397 1138 397 2266 
Q 397 3422 980 4083 
Q 1563 4744 2578 4744 
Q 2900 4744 3203 4694 
Q 3506 4644 3803 4544 
z
" transform="scale(0.015625)"/>
     </defs>
     <use xlink:href="#DejaVuSans-Bold-38"/>
     <use xlink:href="#DejaVuSans-Bold-2e" x="69.580078"/>
     <use xlink:href="#DejaVuSans-Bold-36" x="107.568359"/>
     <use xlink:href="#DejaVuSans-Bold-d7" x="177.148438"/>
    </g>
   </g>
   <g id="text_68">
    <!-- SNPick speedup vs snp-sites -->
    <g transform="translate(799.072656 35.741253) scale(0.14 -0.14)">
     <defs>
      <path id="DejaVuSans-Bold-53" d="M 3834 4519 
L 3834 3531 
Q 3450 3703 3084 3790 
Q 2719 3878 2394 3878 
Q 1963 3878 1756 3759 
Q 1550 3641 1550 3391 
Q 1550 3203 1689 3098 
Q 1828 2994 2194 2919 
L 2706 2816 
Q 3484 2659 3812 2340 
Q 4141 2022 4141 1434 
Q 4141 663 3683 286 
Q 3225 -91 2284 -91 
Q 1841 -91 1394 -6 
Q 947 78 500 244 
L 500 1259 
Q 947 1022 1364 901 
Q 1781 781 2169 781 
Q 2563 781 2772 912 
Q 2981 1044 2981 1288 
Q 2981 1506 2839 1625 
Q 2697 1744 2272 1838 
L 1806 1941 
Q 1106 2091 782 2419 
Q 459 2747 459 3303 
Q 459 4000 909 4375 
Q 1359 4750 2203 4750 
Q 2588 4750 2994 4692 
Q 3400 4634 3834 4519 
z
" transform="scale(0.015625)"/>
      <path id="DejaVuSans-Bold-50" d="M 588 4666 
L 2584 4666 
Q 3475 4666 3951 4270 
Q 4428 3875 4428 3144 
Q 4428 2409 3951 2014 
Q 3475 1619 2584 1619 
L 1791 1619 
L 1791 0 
L 588 0 
L 588 4666 
z
M 1791 3794 
L 1791 2491 
L 2456 2491 
Q 2806 2491 2997 2661 
Q 3188 2831 3188 3144 
Q 3188 3456 2997 3625 
Q 2806 3794 2456 3794 
L 1791 3794 
z
" transform="scale(0.015625)"/>
      <path id="DejaVuSans-Bold-63" d="M 3366 3391 
L 3366 2478 
Q 3138 2634 2908 2709 
Q 2678 2784 2431 2784 
Q 1963 2784 1702 2511 
Q 1441 2238 1441 1747 
Q 1441 1256 1702 982 
Q 1963 709 2431 709 
Q 2694 709 2930 787 
Q 3166 866 3366 1019 
L 3366 103 
Q 3103 6 2833 -42 
Q 2563 -91 2291 -91 
Q 1344 -91 809 395 
Q 275 881 275 1747 
Q 275 2613 809 3098 
Q 1344 3584 2291 3584 
Q 2566 3584 2833 3536 
Q 3100 3488 3366 3391 
z
" transform="scale(0.015625)"/>
      <path id="DejaVuSans-Bold-6b" d="M 538 4863 
L 1656 4863 
L 1656 2216 
L 2944 3500 
L 4244 3500 
L 2534 1894 
L 4378 0 
L 3022 0 
L 1656 1459 
L 1656 0 
L 538 0 
L 538 4863 
z
" transform="scale(0.015625)"/>
      <path id="DejaVuSans-Bold-70" d="M 1656 506 
L 1656 -1331 
L 538 -1331 
L 538 3500 
L 1656 3500 
L 1656 2988 
Q 1888 3294 2169 3439 
Q 2450 3584 2816 3584 
Q 3463 3584 3878 3070 
Q 4294 2556 4294 1747 
Q 4294 938 3878 423 
Q 3463 -91 2816 -91 
Q 2450 -91 2169 54 
Q 1888 200 1656 506 
z
M 2400 2772 
Q 2041 2772 1848 2508 
Q 1656 2244 1656 1747 
Q 1656 1250 1848 986 
Q 2041 722 2400 722 
Q 2759 722 2948 984 
Q 3138 1247 3138 1747 
Q 3138 2247 2948 2509 
Q 2759 2772 2400 2772 
z
" transform="scale(0.015625)"/>
      <path id="DejaVuSans-Bold-64" d="M 2919 2988 
L 2919 4863 
L 4044 4863 
L 4044 0 
L 2919 0 
L 2919 506 
Q 2688 197 2409 53 
Q 2131 -91 1766 -91 
Q 1119 -91 703 423 
Q 288 938 288 1747 
Q 288 2556 703 3070 
Q 1119 3584 1766 3584 
Q 2128 3584 2408 3439 
Q 2688 3294 2919 2988 
z
M 2181 722 
Q 2541 722 2730 984 
Q 2919 1247 2919 1747 
Q 2919 2247 2730 2509 
Q 2541 2772 2181 2772 
Q 1825 2772 1636 2509 
Q 1447 2247 1447 1747 
Q 1447 1247 1636 984 
Q 1825 722 2181 722 
z
" transform="scale(0.015625)"/>
      <path id="DejaVuSans-Bold-76" d="M 97 3500 
L 1216 3500 
L 2088 1081 
L 2956 3500 
L 4078 3500 
L 2700 0 
L 1472 0 
L 97 3500 
z
" transform="scale(0.015625)"/>
      <path id="DejaVuSans-Bold-2d" d="M 347 2297 
L 2309 2297 
L 2309 1388 
L 347 1388 
L 347 2297 
z
" transform="scale(0.015625)"/>
     </defs>
     <use xlink:href="#DejaVuSans-Bold-53"/>
     <use xlink:href="#DejaVuSans-Bold-4e" x="72.021484"/>
     <use xlink:href="#DejaVuSans-Bold-50" x="155.712891"/>
     <use xlink:href="#DejaVuSans-Bold-69" x="229.003906"/>
     <use xlink:href="#DejaVuSans-Bold-63" x="263.28125"/>
     <use xlink:href="#DejaVuSans-Bold-6b" x="322.558594"/>
     <use xlink:href="#DejaVuSans-Bold-20" x="389.0625"/>
     <use xlink:href="#DejaVuSans-Bold-73" x="423.876953"/>
     <use xlink:href="#DejaVuSans-Bold-70" x="483.398438"/>
     <use xlink:href="#DejaVuSans-Bold-65" x="554.980469"/>
     <use xlink:href="#DejaVuSans-Bold-65" x="622.802734"/>
     <use xlink:href="#DejaVuSans-Bold-64" x="690.625"/>
     <use xlink:href="#DejaVuSans-Bold-75" x="762.207031"/>
     <use xlink:href="#DejaVuSans-Bold-70" x="833.398438"/>
     <use xlink:href="#DejaVuSans-Bold-20" x="904.980469"/>
     <use xlink:href="#DejaVuSans-Bold-76" x="939.794922"/>
     <use xlink:href="#DejaVuSans-Bold-73" x="1004.980469"/>
     <use xlink:href="#DejaVuSans-Bold-20" x="1064.501953"/>
     <use xlink:href="#DejaVuSans-Bold-73" x="1099.316406"/>
     <use xlink:href="#DejaVuSans-Bold-6e" x="1158.837891"/>
     <use xlink:href="#DejaVuSans-Bold-70" x="1230.029297"/>
     <use xlink:href="#DejaVuSans-Bold-2d" x="1301.611328"/>
     <use xlink:href="#DejaVuSans-Bold-73" x="1343.115234"/>
     <use xlink:href="#DejaVuSans-Bold-69" x="1402.636719"/>
     <use xlink:href="#DejaVuSans-Bold-74" x="1436.914062"/>
     <use xlink:href="#DejaVuSans-Bold-65" x="1484.716797"/>
     <use xlink:href="#DejaVuSans-Bold-73" x="1552.539062"/>
    </g>
   </g>
  </g>
 </g>
 <defs>
  <clipPath id="pd4b72178f0">
   <rect x="42.53875" y="41.741253" width="304.75" height="268.139856"/>
  </clipPath>
  <clipPath id="p3e86a3c942">
   <rect x="401.03875" y="41.741253" width="304.75" height="268.139856"/>
  </clipPath>
  <clipPath id="p9bb4756bfd">
   <rect x="759.53875" y="41.741253" width="304.75" height="268.139856"/>
  </clipPath>
 </defs>
</svg>
